<?xml version="1.0" encoding="utf-8"?>
<!-- Generator: Adobe Illustrator 25.2.1, SVG Export Plug-In . SVG Version: 6.00 Build 0)  -->
<svg version="1.1" id="Layer_1" xmlns="http://www.w3.org/2000/svg" xmlns:xlink="http://www.w3.org/1999/xlink" x="0px" y="0px"
	 viewBox="0 0 100 100" style="enable-background:new 0 0 100 100;" xml:space="preserve">
<style type="text/css">
	.st0{fill:#F08418;}
</style>
<path class="st0" d="M50,100C22.4,100,0,77.6,0,50S22.4,0,50,0s50,22.4,50,50S77.6,100,50,100z M50,2.2C23.7,2.2,2.2,23.7,2.2,50
	S23.7,97.8,50,97.8S97.8,76.3,97.8,50S76.3,2.2,50,2.2z"/>
<path class="st0" d="M80.4,65.5c-1.3,0-2.5,0.9-2.9,2.1h-4c0-0.4-0.1-0.9-0.2-1.3c-0.5-2.2-1.9-4-3.8-5.2c-1.3-0.8-2.8-1.2-4.4-1.2
	c0,0,0,0,0,0c-2.3,0-4.5,1-6.1,2.6l-4.5-3.4c1.1-2.3,0.2-5-2.1-6.1c-0.4-0.2-0.8-0.3-1.2-0.4v-2.7c4.5-0.5,7.8-4.6,7.4-9.1
	c-0.4-4-3.6-7.2-7.4-7.6v-3.8c1.3-0.4,2.1-1.6,2.1-2.9c0-1.7-1.4-3.1-3.1-3.1c-1.7,0-3.1,1.4-3.1,3.1c0,1.3,0.9,2.5,2.1,2.9v3.8
	c-4.5,0.5-7.9,4.6-7.4,9.1c0.4,4,3.5,7.1,7.4,7.6v2.7c-2.4,0.5-4.1,2.9-3.7,5.4c0.1,0.4,0.2,0.8,0.4,1.2l-4.5,3.4
	C38.3,59.2,33,59,29.6,62c-1.7,1.5-2.6,3.5-2.8,5.6c0,0-0.1,0-0.1,0h-4.2c-0.4-1.3-1.6-2.1-2.9-2.1c-1.7,0-3.1,1.4-3.1,3.1
	s1.4,3.1,3.1,3.1c1.3,0,2.5-0.9,2.9-2.1h4.2c0.1,0,0.1,0,0.2,0c0.2,1.6,0.9,3.2,2.1,4.5c1.7,1.8,4,2.8,6.3,2.8c2,0,4-0.7,5.7-2.2
	c3-2.7,3.6-7.1,1.6-10.5l4.5-3.4c1.8,1.6,4.4,1.6,6.2,0l4.5,3.4c-1.1,1.9-1.4,4.1-0.9,6.2c0.5,2.2,1.9,4,3.8,5.2
	c1.9,1.2,4.2,1.5,6.4,1c2.2-0.5,4-1.9,5.2-3.8c0.6-1,1-2,1.1-3.1h4.1c0.4,1.3,1.6,2.1,2.9,2.1c1.7,0,3.1-1.4,3.1-3.1
	S82.1,65.5,80.4,65.5z M81.6,68.6c0,0.7-0.5,1.2-1.2,1.2c-0.7,0-1.2-0.5-1.2-1.2c0-0.7,0.5-1.2,1.2-1.2
	C81.1,67.4,81.6,67.9,81.6,68.6z M63.8,66c0-0.7,0.6-1.3,1.3-1.3c0.7,0,1.3,0.6,1.3,1.3v0.7c0,0.7-0.6,1.3-1.3,1.3
	c-0.7,0-1.3-0.6-1.3-1.3V66z M62.3,72.7c0-1.5,1.2-2.8,2.8-2.8c1.5,0,2.8,1.2,2.8,2.8v1.4c-1.7,0.8-3.8,0.8-5.5,0V72.7z M69.8,72.7
	c0-1.6-0.8-3.1-2.2-4c0.5-0.6,0.7-1.3,0.7-2V66c0-1.8-1.4-3.2-3.2-3.2s-3.2,1.4-3.2,3.2v0.7c0,0.7,0.2,1.4,0.7,2
	c-1.4,0.9-2.2,2.3-2.2,4c-2.3-2.4-2.4-6.3-0.1-8.8c1.3-1.4,3.1-2.2,4.8-2.2c1.5,0,3.1,0.5,4.3,1.6c2.7,2.4,2.9,6.5,0.5,9.1
	C69.9,72.6,69.8,72.7,69.8,72.7z M48.9,39.2c0-0.7,0.6-1.3,1.3-1.3c0.7,0,1.3,0.6,1.3,1.3V40c0,0.7-0.6,1.3-1.3,1.3
	c-0.7,0-1.3-0.6-1.3-1.3V39.2z M47.4,45.9c0-1.5,1.2-2.8,2.8-2.8c1.5,0,2.8,1.2,2.8,2.8v1.4c-1.7,0.8-3.8,0.8-5.5,0V45.9z M52.7,42
	c0.5-0.6,0.7-1.3,0.7-2v-0.7c0-1.8-1.4-3.2-3.2-3.2c-1.8,0-3.2,1.4-3.2,3.2V40c0,0.7,0.2,1.4,0.7,2c-1.4,0.9-2.2,2.3-2.2,4
	c-1.1-1.2-1.8-2.8-1.8-4.5v0c0-3.6,2.9-6.5,6.5-6.5c0,0,0,0,0,0c3.6,0,6.5,2.9,6.5,6.5c0,1.7-0.6,3.3-1.8,4.5
	C54.9,44.3,54,42.8,52.7,42z M52.9,57.1c0,1.5-1.2,2.8-2.8,2.8c-1.5,0-2.8-1.2-2.8-2.8c0-1.5,1.2-2.8,2.8-2.8
	C51.7,54.3,52.9,55.6,52.9,57.1z M49,26.4c0-0.7,0.5-1.2,1.2-1.2c0.7,0,1.2,0.5,1.2,1.2c0,0.7-0.5,1.2-1.2,1.2
	C49.5,27.6,49,27,49,26.4z M34,66c0-0.7,0.6-1.3,1.3-1.3c0.7,0,1.3,0.6,1.3,1.3v0.7c0,0.7-0.6,1.3-1.3,1.3c-0.7,0-1.3-0.6-1.3-1.3
	V66z M32.5,72.7c0-1.5,1.2-2.8,2.8-2.8s2.8,1.2,2.8,2.8v1.4c-1.7,0.8-3.8,0.8-5.5,0V72.7z M38.5,66.8V66c0-1.8-1.4-3.2-3.2-3.2
	s-3.2,1.4-3.2,3.2v0.7c0,0.7,0.2,1.4,0.7,2c-1.4,0.9-2.2,2.3-2.2,4c-2.3-2.4-2.4-6.3-0.1-8.8c1.3-1.4,3.1-2.2,4.8-2.2
	c1.5,0,3.1,0.5,4.3,1.6c2.7,2.4,2.9,6.5,0.5,9.1c0,0-0.1,0.1-0.1,0.1c0-1.6-0.8-3.1-2.2-4C38.2,68.2,38.5,67.5,38.5,66.8z
	 M20.8,68.6c0,0.7-0.5,1.2-1.2,1.2c-0.7,0-1.2-0.5-1.2-1.2c0-0.7,0.5-1.2,1.2-1.2C20.2,67.4,20.8,67.9,20.8,68.6z"/>
</svg>
