<?xml version="1.0" encoding="utf-8"?>
<!-- Generator: Adobe Illustrator 25.2.1, SVG Export Plug-In . SVG Version: 6.00 Build 0)  -->
<svg version="1.1" id="Layer_1" xmlns="http://www.w3.org/2000/svg" xmlns:xlink="http://www.w3.org/1999/xlink" x="0px" y="0px"
	 viewBox="0 0 100 100" style="enable-background:new 0 0 100 100;" xml:space="preserve">
<style type="text/css">
	.st0{fill:#F08418;}
	.st1{fill:#FFFFFF;}
</style>
<path class="st0" d="M50,100C22.4,100,0,77.6,0,50S22.4,0,50,0s50,22.4,50,50S77.6,100,50,100z"/>
<g>
	<path class="st1" d="M63,51.7c0.2-0.2,0.3-0.4,0.3-0.7c0-0.2-0.1-0.5-0.3-0.7c-0.4-0.4-1-0.4-1.3,0l-4.4,4.4L55,52.4
		c-0.2-0.2-0.4-0.3-0.7-0.3c-0.2,0-0.5,0.1-0.7,0.3c-0.4,0.4-0.4,1,0,1.3l2.9,2.9c0.2,0.2,0.4,0.3,0.7,0.3c0,0,0,0,0,0
		c0.3,0,0.5-0.1,0.7-0.3L63,51.7z"/>
	<path class="st1" d="M30.6,67.9h38.8c1.7,0,3.2-1.4,3.2-3.2c0-1.5-1.1-2.9-2.6-3.1l-0.1,0V43.5l0.1,0c0.8-0.2,1.4-0.9,1.5-1.7
		l0-0.1H68v21.8h1.5c0.7,0,1.3,0.5,1.3,1.3c0,0.7-0.5,1.3-1.3,1.3H30.7c-0.7,0-1.3-0.5-1.3-1.3c0-0.7,0.5-1.3,1.3-1.3h1.5V41.7h-3.5
		l0,0.1c0.1,0.8,0.7,1.5,1.5,1.7l0.1,0v18.1l-0.1,0c-1.5,0.2-2.7,1.6-2.7,3.1C27.4,66.5,28.9,67.9,30.6,67.9z"/>
	<path class="st1" d="M27.8,76.5h44.3c1.7,0,3.2-1.4,3.2-3.2c0-1.7-1.5-3.2-3.2-3.2H27.8c-1.7,0-3.2,1.4-3.2,3.2
		C24.7,75.1,26.1,76.5,27.8,76.5z M27.8,72.1h44.3c0.7,0,1.3,0.6,1.3,1.3c0,0.7-0.5,1.3-1.3,1.3H27.8c-0.7,0-1.3-0.5-1.3-1.3
		C26.6,72.7,27.1,72.1,27.8,72.1z"/>
	<path class="st1" d="M26.6,33.7c-1.4,0.6-2.2,2.1-1.8,3.5c0.3,1.4,1.6,2.5,3.1,2.5h44.3c1.7,0,3.2-1.4,3.2-3.2c0-1.3-0.8-2.5-2-2.9
		l-22-9.8c-0.4-0.2-0.8-0.3-1.3-0.3c-0.4,0-0.9,0.1-1.3,0.3L26.6,33.7z M50,25.3c0.2,0,0.3,0,0.5,0.1l22,10l0.1,0.1
		c0.5,0.2,0.9,0.6,0.9,1.2c0,0.7-0.5,1.3-1.3,1.3H27.8c-0.7,0-1.1-0.5-1.3-1.1c-0.2-0.6,0.2-1.2,0.7-1.4l22.1-10
		C49.6,25.3,49.8,25.3,50,25.3z"/>
	<path class="st1" d="M46.6,54.6c0.2-0.3,0.3-0.6,0.3-1h-0.8c0,0.4-0.2,0.8-0.4,1C45.4,54.9,45,55,44.5,55h-0.3v-1.4l1.6-0.8v-0.3
		l-1.6,0.8v-0.6l1.6-0.8v-0.3l-1.6,0.8v-1h-0.8v1.4l-0.6,0.3v0.3l0.6-0.3v0.6l-0.6,0.3v0.3l0.6-0.3v1.6h0.9c0.6,0,1.1-0.1,1.4-0.3
		C46.1,55.2,46.4,55,46.6,54.6z"/>
	<path class="st1" d="M44.4,47c-3.6,0-6.5,2.9-6.5,6.5c0,3.6,2.9,6.5,6.5,6.5c3.6,0,6.5-2.9,6.5-6.5S48,47,44.4,47z M44.4,58.8
		c-2.9,0-5.3-2.4-5.3-5.3c0-2.9,2.4-5.3,5.3-5.3c2.9,0,5.3,2.4,5.3,5.3S47.3,58.8,44.4,58.8z"/>
</g>
</svg>
