<?xml version="1.0" encoding="utf-8"?>
<!-- Generator: Adobe Illustrator 25.2.1, SVG Export Plug-In . SVG Version: 6.00 Build 0)  -->
<svg version="1.1" id="Layer_1" xmlns="http://www.w3.org/2000/svg" xmlns:xlink="http://www.w3.org/1999/xlink" x="0px" y="0px"
	 viewBox="0 0 100 100" style="enable-background:new 0 0 100 100;" xml:space="preserve">
<style type="text/css">
	.st0{fill:#F08418;}
</style>
<path class="st0" d="M50.1,100C22.6,100,0.3,77.6,0.3,50.1S22.6,0.3,50.1,0.3S100,22.6,100,50.1S77.6,100,50.1,100z M50.1,2.5
	C23.9,2.5,2.5,23.9,2.5,50.1s21.4,47.6,47.6,47.6s47.6-21.4,47.6-47.6S76.4,2.5,50.1,2.5z"/>
<g>
	<path class="st0" d="M68.6,24.9c0-0.1,0-0.2,0-0.3c0-0.2-0.2-0.5-0.4-0.6c-0.2-0.2-0.4-0.2-0.7-0.2l0,0L40,26.9
		c-2.2,0.3-3.9,2.2-3.9,4.4v3.9c0,1.7,1,3.3,2.6,4l0,0v3.8h-2.6c-4.4,0-7.9,3.6-8,8v4.9l0,0l-4.2,5c-0.1,0.2-0.2,0.4-0.2,0.6v14
		c0,0.5,0.4,0.9,0.9,0.9h4.4c0.3,0,0.5-0.1,0.7-0.3l5.9-6.7h5.4l0,0.1c-0.8,3-3.6,5.1-6.7,5.1c-0.5,0-0.9,0.4-0.9,0.9
		c0,0.5,0.4,0.9,0.9,0.9c4.1,0,7.8-2.9,8.6-7l0,0h7.1c0.7,0,1.4-0.2,2-0.6c1.6-1.1,2.1-3.2,1.1-4.8l0-0.1l0.1,0c0.5-0.2,1-0.5,1.4-1
		c1.3-1.5,1.2-3.6-0.2-4.9l0,0l0,0c0.1-0.1,0.2-0.2,0.2-0.2c0.6-0.7,0.9-1.6,0.9-2.6c-0.1-0.9-0.5-1.7-1.1-2.4l0,0l0,0
		c0.5-0.4,0.8-1,1-1.6c0.5-1.8-0.6-3.8-2.4-4.4l0,0l0-0.1l1.5-7h10.6c0.5,0,0.8-0.3,0.9-0.8L68.6,24.9z M41.3,67.6h-6.1
		c-0.3,0-0.5,0.1-0.7,0.3l-5.9,6.7h-3V61.9l0,0l4.2-5c0.1-0.2,0.2-0.4,0.2-0.6V51c0-3.3,2.7-6.1,6.1-6.1h4.4c1.4,0,2.6,1.2,2.6,2.6
		s-1.2,2.6-2.6,2.6H37c-0.5,0-0.9,0.4-0.9,0.9S36.5,52,37,52h2.6l0,0.1c0,0.9-0.2,2.7-0.9,4.2l0,0c-0.5,1.2-1.3,2.2-2.2,2.7
		c-0.4,0.3-0.6,0.8-0.3,1.3c0.1,0.2,0.3,0.4,0.6,0.4c0.2,0,0.4,0,0.5,0l0.1,0v0l0.1-0.1c0.4-0.2,0.8-0.5,1.1-0.9l0.1-0.1v0.1
		c0,1.7,1,3.3,2.6,4.1l0,0V67.6z M40.6,59.8l0-3.2c0.7-1.8,0.8-3.7,0.9-4.7l0,0l0,0c2-0.5,3.5-2.3,3.5-4.3c0-2.4-1.9-4.4-4.3-4.4
		l-0.1,0v-3.4h11.9L51,46.6h-0.9c-0.6,0-1.2,0.2-1.8,0.5c-0.8,0.5-1.4,1.2-1.7,2.2c-0.2,0.9-0.1,1.8,0.3,2.5l0,0.1h-0.4
		c-1.2,0-2.4,0.7-3.1,1.7c-0.5,0.8-0.6,1.8-0.4,2.7c0.2,0.9,0.8,1.6,1.5,2.1l0.1,0l0,0c-0.8,1.1-1,2.6-0.4,3.8l0,0.1h-1.2
		C41.7,62.4,40.6,61.2,40.6,59.8z M45.2,67.5L45.2,67.5l-2,0.1v-3.4h2.1l0,0.1C44.7,65.3,44.7,66.5,45.2,67.5z M50.1,67.6h-1.8
		c-0.9,0-1.7-0.8-1.7-1.7c0-0.9,0.8-1.7,1.7-1.7h1.8c0.9,0,1.7,0.8,1.7,1.7C51.8,66.9,51.1,67.6,50.1,67.6z M51.9,62.4h-4.4
		c-0.9,0-1.7-0.8-1.7-1.7s0.8-1.7,1.7-1.7h4.4c0.9,0,1.7,0.8,1.7,1.7S52.8,62.4,51.9,62.4z M51.9,57.1h-5.3c-0.9,0-1.7-0.8-1.7-1.7
		c0-0.9,0.8-1.7,1.7-1.7h5.3c0.9,0,1.7,0.8,1.7,1.7C53.6,56.3,52.8,57.1,51.9,57.1z M53.6,50.1c0,0.9-0.8,1.7-1.7,1.7h-1.8
		c-0.9,0-1.7-0.8-1.7-1.7s0.8-1.7,1.7-1.7h1.8C52.8,48.4,53.6,49.2,53.6,50.1z M40.5,37.8c-1.4,0-2.6-1.2-2.6-2.6v-3.9
		c0-1.3,1-2.4,2.3-2.6l20.2-2.3l0,0.1l-2.3,11.3H40.5z M64.3,37.8h-4.2l0-0.1l2.3-11.5l0,0l4.1-0.5l0,0.1L64.3,37.8z"/>
	<path class="st0" d="M70.8,37c0.3,0,0.5-0.1,0.7-0.3c1-1,1.6-2.3,1.6-3.8c0-1.4-0.6-2.8-1.6-3.8c-0.4-0.4-1-0.4-1.3,0
		c-0.4,0.4-0.4,0.9,0,1.3l0,0c0.7,0.7,1,1.5,1,2.4c0,0.9-0.4,1.8-1,2.4c-0.4,0.4-0.4,1,0,1.3C70.3,36.9,70.5,37,70.8,37z"/>
	<path class="st0" d="M73.3,39.4c0.3,0,0.5-0.1,0.7-0.3c3.4-3.4,3.4-9,0-12.5c-0.2-0.2-0.4-0.3-0.7-0.3s-0.5,0.1-0.7,0.3
		c-0.2,0.2-0.3,0.4-0.3,0.7c0,0.2,0.1,0.5,0.3,0.7c2.7,2.7,2.7,7.1,0,9.8c-0.4,0.4-0.4,0.9,0,1.3C72.8,39.3,73,39.4,73.3,39.4z"/>
</g>
</svg>
