<?xml version="1.0" encoding="utf-8"?>
<!-- Generator: Adobe Illustrator 25.2.1, SVG Export Plug-In . SVG Version: 6.00 Build 0)  -->
<svg version="1.1" id="Layer_1" xmlns="http://www.w3.org/2000/svg" xmlns:xlink="http://www.w3.org/1999/xlink" x="0px" y="0px"
	 viewBox="0 0 100 100" style="enable-background:new 0 0 100 100;" xml:space="preserve">
<style type="text/css">
	.st0{fill:#F08418;}
	.st1{fill:#FFFFFF;}
</style>
<path class="st0" d="M50,100C22.4,100,0,77.6,0,50S22.4,0,50,0s50,22.4,50,50S77.6,100,50,100z"/>
<path class="st1" d="M82.9,60.6c0-2.9-1.7-5.5-4.3-6.6l-0.4-0.2l0.2-0.3c0.6-1,1-2.2,1-3.5c0-3.7-3-6.8-6.8-6.8
	c-3.7,0-6.8,3-6.8,6.8c0,1.2,0.3,2.4,0.9,3.4l0.2,0.4l-0.3,0.2c-0.9,0.4-1.7,1-2.4,1.7l-0.4,0.5l-0.2-0.6c-1-2.8-3.2-5.1-6-6.2
	l-0.4-0.2l0.3-0.4c1.1-1.5,1.6-3.4,1.6-5.3c0-2.4-0.9-4.7-2.6-6.5c-1.7-1.8-4.1-2.7-6.6-2.7c-5.1,0-9.2,4.2-9.3,9.2
	c0,1.9,0.6,3.7,1.6,5.3l0.3,0.4l-0.4,0.2c-2.8,1.1-5,3.3-6,6.2l-0.2,0.6l-0.4-0.6c-0.6-0.7-1.4-1.2-2.4-1.7L33,53.7l0.2-0.3
	c0.6-1,1-2.2,1-3.5c0-3.7-3-6.8-6.8-6.8c-3.7,0-6.8,3-6.8,6.8c0,1.2,0.3,2.4,0.9,3.4l0.2,0.4l-0.3,0.2c-2.6,1.2-4.3,3.8-4.3,6.6v4.2
	c0,0.5,0.4,0.9,0.9,0.9h63.9c0.2,0,0.5-0.1,0.7-0.3c0.2-0.2,0.2-0.4,0.3-0.7L82.9,60.6z M27.2,45.1h0.2c2.7,0,4.8,2.2,4.8,4.9
	c0,1.3-0.5,2.5-1.4,3.4c-0.9,0.9-2.1,1.4-3.4,1.4c-2.7,0-4.8-2.2-4.8-4.8C22.6,47.4,24.7,45.2,27.2,45.1z M35.8,63.6v0.2h-0.1h0
	H19.1v-3.2c0-2.4,1.7-4.6,4.1-5.2l0,0h0.2l0.1,0.1c2.4,1.8,5.6,1.8,7.9,0l0.1-0.1l0.2,0c2.4,0.6,4,2.8,4,5.2V63.6z M42.6,43.5
	c0-2,0.8-3.8,2.2-5.2c1.4-1.4,3.2-2.2,5.2-2.2c2,0,3.9,0.8,5.2,2.1c1.4,1.4,2.2,3.2,2.2,5.2c0,2-0.8,3.9-2.2,5.2
	c-1.5,1.4-3.3,2.2-5.2,2.2C46,50.9,42.6,47.6,42.6,43.5z M62.4,63.8H37.7v-5.1c0-3.8,2.7-7.1,6.4-8l0.2,0l0.1,0.1
	c3.3,2.6,8,2.6,11.3,0l0.1-0.1H56c3.8,0.9,6.4,4.1,6.4,8V63.8z M69.2,46.6c0.9-0.9,2.1-1.5,3.5-1.5c1.3,0,2.5,0.5,3.4,1.4
	c0.9,0.9,1.4,2.1,1.4,3.4c0,1.3-0.5,2.5-1.4,3.4c-0.9,0.9-2.1,1.4-3.4,1.4c-2.7,0-4.8-2.2-4.8-4.8C67.8,48.7,68.3,47.5,69.2,46.6z
	 M81,63.8H64.3v-3.2c0-2.4,1.7-4.6,4.1-5.2l0,0h0.2l0.1,0.1c2.4,1.8,5.6,1.8,7.9,0l0.1-0.1l0.2,0c2.4,0.6,4,2.8,4.1,5.2V63.8z"/>
</svg>
