<?xml version="1.0" encoding="utf-8"?>
<!-- Generator: Adobe Illustrator 25.2.1, SVG Export Plug-In . SVG Version: 6.00 Build 0)  -->
<svg version="1.1" id="Layer_1" xmlns="http://www.w3.org/2000/svg" xmlns:xlink="http://www.w3.org/1999/xlink" x="0px" y="0px"
	 viewBox="0 0 100 100" style="enable-background:new 0 0 100 100;" xml:space="preserve">
<style type="text/css">
	.st0{fill:#F08418;}
	.st1{fill:#FFFFFF;}
</style>
<path class="st0" d="M50,100C22.4,100,0,77.6,0,50S22.4,0,50,0s50,22.4,50,50S77.6,100,50,100z"/>
<g>
	<path class="st1" d="M73.7,52.1h-2.3c-0.3,0-0.5,0.2-0.5,0.5v1c0,0.3,0.2,0.5,0.5,0.5h0.3c0.3,0,0.5,0.2,0.5,0.5v2
		c0,0.3-0.2,0.5-0.5,0.5h-0.3c-0.3,0-0.5,0.2-0.5,0.5v1c0,0.3,0.2,0.5,0.5,0.5h2.3c0.3,0,0.5-0.2,0.5-0.5v-5.9
		C74.2,52.3,74,52.1,73.7,52.1z"/>
	<path class="st1" d="M28.7,58.9h30.5c0.3,0,0.5-0.2,0.5-0.5v-1c0-0.3-0.2-0.5-0.5-0.5H30.6c-0.3,0-0.5-0.2-0.5-0.5v-2
		c0-0.3,0.2-0.5,0.5-0.5h28.6c0.3,0,0.5-0.2,0.5-0.5v-1c0-0.3-0.2-0.5-0.5-0.5H28.7c-0.3,0-0.5,0.2-0.5,0.5v5.9
		C28.2,58.7,28.4,58.9,28.7,58.9z"/>
	<path class="st1" d="M38.3,47.2h-9.8c-0.3,0-0.5,0.2-0.5,0.5v1c0,0.3,0.2,0.5,0.5,0.5h9.8c0.3,0,0.5-0.2,0.5-0.5v-1
		C38.7,47.4,38.5,47.2,38.3,47.2z"/>
	<path class="st1" d="M71.5,63.3h2.5c0.3,0,0.5-0.2,0.5-0.5v-1c0-0.3-0.2-0.5-0.5-0.5h-2.5c-0.3,0-0.5,0.2-0.5,0.5v1
		C71,63.1,71.2,63.3,71.5,63.3z"/>
	<path class="st1" d="M50.1,63.3h9.1c0.3,0,0.5-0.2,0.5-0.5v-1c0-0.3-0.2-0.5-0.5-0.5h-9.1c-0.3,0-0.5,0.2-0.5,0.5v1
		C49.6,63.1,49.8,63.3,50.1,63.3z"/>
	<path class="st1" d="M28.5,63.3H31c0.3,0,0.5-0.2,0.5-0.5v-1c0-0.3-0.2-0.5-0.5-0.5h-2.5c-0.3,0-0.5,0.2-0.5,0.5v1
		C28,63.1,28.2,63.3,28.5,63.3z"/>
	<path class="st1" d="M77.7,42.6h-8.9c-0.3,0-0.6-0.3-0.6-0.6V25.2c0-0.4-0.3-0.7-0.7-0.7h-5.2c-0.4,0-0.7,0.3-0.7,0.7v2.1
		c0,0.3-0.3,0.6-0.6,0.6h-2.4c-0.4,0-0.7,0.3-0.7,0.7v10.8c0,0.4,0.3,0.7,0.7,0.7h0.4c0.4,0,0.7-0.3,0.7-0.7v-9
		c0-0.3,0.3-0.6,0.6-0.6H61c0.3,0,0.6,0.3,0.6,0.6V42c0,0.3-0.3,0.6-0.6,0.6H24.7c-0.4,0-0.7,0.3-0.7,0.7v23.7
		c0,0.4,0.3,0.7,0.7,0.7H61c0.3,0,0.6,0.3,0.6,0.6v4.4c0,0.1,0,0.2,0,0.2l1.4,4.2v0.1h3.2c0.3,0,0.6-0.2,0.7-0.5l1.2-3.8
		c0-0.1,0-0.2,0-0.3v-4.4c0-0.3,0.3-0.6,0.6-0.6l8.9,0c0.2,0,0.4,0,0.5-0.2c0.2-0.1,0.2-0.3,0.2-0.6V43.4
		C78.5,43,78.1,42.6,77.7,42.6z M76.5,45.1v20.2c0,0.3-0.3,0.6-0.6,0.6h-7.1c-0.3,0-0.6-0.3-0.6-0.6V45.1c0-0.3,0.3-0.6,0.6-0.6H76
		C76.3,44.5,76.5,44.8,76.5,45.1z M63.5,51.9l0-3.6V30.4c0-0.3,0.3-0.6,0.6-0.6l1.7,0c0.1,0,0.3,0,0.4,0.1c0.1,0.1,0.2,0.3,0.2,0.4
		v12.1l0,6.2V56h0v14.2c0,0.3-0.3,0.6-0.6,0.6H64c-0.3,0-0.6-0.3-0.6-0.6V56l0-1l0-3L63.5,51.9z M65.7,27.9h-1.7
		c-0.3,0-0.6-0.3-0.6-0.6V27c0-0.3,0.3-0.6,0.6-0.6l1.7,0c0,0,0,0,0.1,0c0.1,0,0.2,0,0.3,0.1c0.1,0.1,0.2,0.3,0.2,0.4v0.4
		C66.3,27.7,66,27.9,65.7,27.9z M63.8,72.9c0.1-0.2,0.3-0.3,0.5-0.3h1.2c0.2,0,0.4,0.1,0.5,0.2c0.1,0.2,0.2,0.4,0.1,0.5L65.5,75
		c-0.1,0.3-0.3,0.4-0.6,0.4h-0.1c-0.3,0-0.5-0.2-0.6-0.4l-0.5-1.6C63.7,73.2,63.7,73.1,63.8,72.9z M26.5,65.9
		c-0.3,0-0.6-0.3-0.6-0.6V45.1c0-0.3,0.3-0.6,0.6-0.6h34.5c0.3,0,0.6,0.3,0.6,0.6v20.2l0,0c0,0.1,0,0.3-0.1,0.4
		c-0.1,0.1-0.3,0.2-0.4,0.2H26.5z"/>
</g>
</svg>
