<?xml version="1.0" encoding="utf-8"?>
<!-- Generator: Adobe Illustrator 25.2.1, SVG Export Plug-In . SVG Version: 6.00 Build 0)  -->
<svg version="1.1" id="Layer_1" xmlns="http://www.w3.org/2000/svg" xmlns:xlink="http://www.w3.org/1999/xlink" x="0px" y="0px"
	 viewBox="0 0 100 100" style="enable-background:new 0 0 100 100;" xml:space="preserve">
<style type="text/css">
	.st0{fill:#F08418;}
</style>
<path class="st0" d="M50,100C22.4,100,0,77.6,0,50S22.4,0,50,0s50,22.4,50,50S77.6,100,50,100z M50,2.2C23.7,2.2,2.2,23.7,2.2,50
	S23.7,97.8,50,97.8S97.8,76.3,97.8,50S76.3,2.2,50,2.2z"/>
<g>
	<path class="st0" d="M55.1,51c-0.1-0.1-0.3-0.2-0.5-0.2c-0.2,0-0.4,0.1-0.5,0.2L40.6,64.5c-0.1,0.1-0.2,0.3-0.2,0.5
		c0,0.2,0.1,0.4,0.2,0.5l0.3,0.3C41,66,41.2,66,41.4,66c0,0,0,0,0,0c0.2,0,0.4-0.1,0.5-0.2l13.5-13.5c0.3-0.3,0.3-0.8,0-1.1v0
		L55.1,51z"/>
	<path class="st0" d="M49.5,62c-0.1-0.1-0.3-0.2-0.5-0.2c-0.2,0-0.4,0.1-0.5,0.2l-4.7,4.7c-0.1,0.1-0.2,0.3-0.2,0.5
		c0,0.2,0.1,0.4,0.2,0.5L44,68c0.3,0.3,0.8,0.3,1.1,0l4.7-4.7C50,63.2,50,63,50,62.8c0-0.2-0.1-0.4-0.2-0.5L49.5,62z"/>
	<path class="st0" d="M41.7,73.4L35,66.7L33.6,68l6.7,6.7c1,1,2.3,1.5,3.6,1.5c1.4,0,2.7-0.5,3.6-1.5L77.4,45c1-1,1.5-2.3,1.5-3.6
		s-0.5-2.7-1.5-3.6L70.7,31l-1.4,1.4l6.7,6.7c0.6,0.6,0.9,1.4,0.9,2.3c0,0.9-0.3,1.7-0.9,2.3L46.3,73.4c-0.6,0.6-1.4,0.9-2.3,0.9
		C43.1,74.3,42.3,74,41.7,73.4z"/>
	<path class="st0" d="M61.3,29.9l0.2-0.1l4,4l1.4-1.4l-7.2-7.2c-1-1-2.3-1.5-3.6-1.5c-1.4,0-2.7,0.5-3.6,1.5L22.6,55
		c-1,1-1.5,2.3-1.5,3.6s0.5,2.7,1.5,3.6l7.2,7.2l1.4-1.4l-3.4-3.4l0.1-0.1c2.7-5.4,0.5-9.8-0.5-11.5L27.3,53l0.1-0.1l22.7-22.7
		l0.1,0.1C55.2,32.7,59.3,31.1,61.3,29.9z M53.7,26.6c0.6-0.6,1.4-0.9,2.3-0.9c0.9,0,1.7,0.3,2.3,0.9l1.8,1.8l-0.3,0.1
		c-1.1,0.6-2.6,1.1-4.4,1.1c-1.1,0-2.3-0.2-3.6-0.7l-0.3-0.1L53.7,26.6z M26.5,63.1l-0.1,0.3l-2.4-2.4c-1.3-1.3-1.3-3.3,0-4.6
		l1.9-1.9l0.1,0.3C26.9,56.2,28.1,59.3,26.5,63.1z"/>
	<polygon class="st0" points="46,53.3 46.9,52.5 46.9,52.4 47.9,48.9 47.6,48.6 46.5,52.1 45.5,51.1 46.7,47.6 46.3,47.3 45.2,50.8 
		43.7,49.2 42.8,50.1 44.8,52.1 44.4,53.6 44.7,53.9 45.2,52.4 	"/>
	<path class="st0" d="M73.3,26.8c-0.3-0.3-0.8-0.3-1.1,0L27.1,71.9c-0.3,0.3-0.3,0.8,0,1.1l0.3,0.3c0.3,0.3,0.8,0.3,1.1,0l45.1-45.1
		c0.1-0.1,0.2-0.3,0.2-0.5c0-0.2-0.1-0.4-0.2-0.5L73.3,26.8z"/>
</g>
</svg>
