<?xml version="1.0" encoding="utf-8"?>
<!-- Generator: Adobe Illustrator 25.2.1, SVG Export Plug-In . SVG Version: 6.00 Build 0)  -->
<svg version="1.1" id="Layer_1" xmlns="http://www.w3.org/2000/svg" xmlns:xlink="http://www.w3.org/1999/xlink" x="0px" y="0px"
	 viewBox="0 0 100 100" style="enable-background:new 0 0 100 100;" xml:space="preserve">
<style type="text/css">
	.st0{fill:#F08418;}
	.st1{fill:#FFFFFF;}
</style>
<path class="st0" d="M50,100C22.4,100,0,77.6,0,50s22.4-50,50-50s50,22.4,50,50S77.5,100,50,100z"/>
<g>
	<path class="st1" d="M71,34.3L60.4,23.6c-0.2-0.2-0.4-0.3-0.7-0.3H33.1c-2.5,0-4.5,2-4.5,4.5v44.4c0,2.5,2,4.5,4.5,4.5h33.7
		c2.5,0,4.5-2,4.5-4.5V35C71.3,34.7,71.2,34.5,71,34.3z M63.3,35.9h6.2v36.4c0,1.4-1.2,2.6-2.6,2.6H33.1c-1.4,0-2.6-1.2-2.6-2.6
		V27.8c0-1.4,1.2-2.6,2.6-2.6h25.7v6.2C58.8,33.9,60.8,35.9,63.3,35.9z M60.7,31.4v-4.9l7.5,7.5h-4.9C61.8,34,60.7,32.8,60.7,31.4z"
		/>
	<path class="st1" d="M42.9,47.3c-1.5,0-2.7,1.2-2.7,2.7s1.2,2.7,2.7,2.7s2.7-1.2,2.7-2.7C45.6,48.6,44.4,47.3,42.9,47.3z M43.7,50
		c0,0.5-0.4,0.9-0.9,0.9c-0.5,0-0.9-0.4-0.9-0.9c0-0.5,0.4-0.9,0.9-0.9C43.3,49.2,43.7,49.6,43.7,50z"/>
	<path class="st1" d="M50,47.3c-1.5,0-2.7,1.2-2.7,2.7s1.2,2.7,2.7,2.7s2.7-1.2,2.7-2.7C52.7,48.6,51.5,47.3,50,47.3z M50.8,50
		c0,0.5-0.4,0.9-0.9,0.9c-0.5,0-0.9-0.4-0.9-0.9c0-0.5,0.4-0.9,0.9-0.9C50.4,49.2,50.8,49.6,50.8,50z"/>
	<path class="st1" d="M54.4,50c0,1.5,1.2,2.7,2.7,2.7s2.7-1.2,2.7-2.7c0-1.5-1.2-2.7-2.7-2.7C55.6,47.3,54.4,48.6,54.4,50z M57.9,50
		c0,0.5-0.4,0.9-0.9,0.9c-0.5,0-0.9-0.4-0.9-0.9c0-0.5,0.4-0.9,0.9-0.9C57.5,49.2,57.9,49.6,57.9,50z"/>
</g>
</svg>
