<?xml version="1.0" encoding="utf-8"?>
<!-- Generator: Adobe Illustrator 25.2.1, SVG Export Plug-In . SVG Version: 6.00 Build 0)  -->
<svg version="1.1" id="Layer_1" xmlns="http://www.w3.org/2000/svg" xmlns:xlink="http://www.w3.org/1999/xlink" x="0px" y="0px"
	 viewBox="0 0 100 100" style="enable-background:new 0 0 100 100;" xml:space="preserve">
<style type="text/css">
	.st0{fill:#F08418;}
	.st1{fill:#F08419;}
</style>
<path class="st0" d="M50,100C22.4,100,0,77.6,0,50S22.4,0,50,0s50,22.4,50,50S77.6,100,50,100z M50,2.2C23.7,2.2,2.2,23.7,2.2,50
	S23.7,97.8,50,97.8S97.8,76.3,97.8,50S76.3,2.2,50,2.2z"/>
<g>
	<path class="st1" d="M29.2,32.7c-2.9,0-5.3,2.4-5.3,5.3c0,2.9,2.4,5.3,5.3,5.3s5.3-2.4,5.3-5.3C34.5,35.1,32.1,32.7,29.2,32.7z
		 M29.2,42.2c-2.3,0-4.1-1.8-4.1-4.1s1.8-4.1,4.1-4.1c2.3,0,4.1,1.8,4.1,4.1S31.5,42.2,29.2,42.2z"/>
	<path class="st1" d="M48.2,32.7c-2.9,0-5.3,2.4-5.3,5.3c0,2.9,2.4,5.3,5.3,5.3c2.9,0,5.3-2.4,5.3-5.3
		C53.5,35.1,51.1,32.7,48.2,32.7z M48.2,42.2c-2.3,0-4.1-1.8-4.1-4.1s1.8-4.1,4.1-4.1c2.3,0,4.1,1.8,4.1,4.1S50.5,42.2,48.2,42.2z"
		/>
	<path class="st1" d="M38.6,43c-2.9,0-5.3,2.4-5.3,5.3c0,2.9,2.4,5.3,5.3,5.3c2.9,0,5.3-2.4,5.3-5.3C44,45.4,41.6,43,38.6,43z
		 M38.6,52.5c-2.3,0-4.1-1.8-4.1-4.1c0-2.3,1.8-4.1,4.1-4.1c2.3,0,4.1,1.8,4.1,4.1C42.8,50.6,40.9,52.5,38.6,52.5z"/>
	<path class="st1" d="M67.8,32.7c-2.9,0-5.3,2.4-5.3,5.3c0,2.9,2.4,5.3,5.3,5.3c2.9,0,5.3-2.4,5.3-5.3
		C73.1,35.1,70.7,32.7,67.8,32.7z M67.8,42.2c-2.3,0-4.1-1.8-4.1-4.1s1.8-4.1,4.1-4.1c2.3,0,4.1,1.8,4.1,4.1S70,42.2,67.8,42.2z"/>
	<path class="st1" d="M57.6,41.5c-2.9,0-5.3,2.4-5.3,5.3c0,1.3,0.4,2.5,1.3,3.4l0.3,0.4v-2.1l0-0.1c-0.2-0.5-0.3-1.1-0.3-1.6
		c0-2.3,1.8-4.1,4.1-4.1c2.3,0,4.1,1.8,4.1,4.1c0,0.5-0.1,1.1-0.3,1.6l0,2.2l0.3-0.4c0.8-1,1.3-2.2,1.3-3.4
		C63,43.9,60.6,41.5,57.6,41.5z"/>
	<path class="st1" d="M79.9,24.6H20.1c-2.4,0-4.4,2-4.4,4.4v29.9c0,2.4,2,4.4,4.4,4.4h29.8c0.2,0.4,0.4,0.8,0.7,1.3
		c0.4,0.8,0.9,1.7,1.2,2.5l0.2,0.4c0.6,1.2,1.2,2.5,1.8,3.7c0.6,1.1,1.3,2.2,2.3,3c0.9,0.9,2,1.4,3.1,1.4l0.1,0c1.5,0,2.9,0,4.6,0
		l0.1,0c1,0,1.9,0,2.8,0c0.2,0,0.5-0.1,0.7-0.2c1.1-0.5,2.2-1.2,3.1-2.1c1.9-1.8,2.9-4,2.8-6.5c0-1.1,0-2.3,0-3.4h6.4
		c2.4,0,4.4-2,4.4-4.4V29C84.3,26.5,82.3,24.6,79.9,24.6z M72.3,67c0,2.1-0.9,3.9-2.6,5.4c-0.2,0.2-0.5,0.4-0.7,0.6l-0.2,0.1
		c-1,0.8-1.9,1.1-3.1,1.1c-0.1,0-0.2,0-0.3,0c-0.8,0-1.7-0.1-2.7-0.1c-1,0-2,0-3,0l-0.5,0c-0.8,0-1.6-0.3-2.3-0.9
		c-0.9-0.8-1.5-1.8-2-2.6c-0.9-1.5-1.7-3.1-2.4-4.7c-0.2-0.5-0.5-1-0.7-1.5c-0.7-1.4-1.4-2.8-2.2-4.1c-0.5-0.9-0.4-1.7,0.2-2.3
		c0.6-0.5,1.5-0.5,2.1,0.1c1,1,2,2.1,3,3.1l0.2,0.2c0.3,0.4,0.6,0.3,0.8,0.2c0.2-0.1,0.4-0.2,0.3-0.7l0,0c0-0.1,0-0.2,0-0.3v-1.8
		c0-3.7,0-7.4,0-11.1c0-0.9,0.4-1.5,1.2-1.7c0.5-0.1,1,0,1.3,0.3c0.4,0.3,0.6,0.7,0.6,1.2c0,1.3,0,2.6,0,3.9l0,3.7
		c0,1.4,0,2.9,0,4.3c0,0.3,0.1,0.5,0.3,0.6c0.2,0.1,0.3,0.1,0.5,0c0.2-0.1,0.3-0.3,0.3-0.6c0-0.4,0-0.8,0-1.3l0-0.5c0-0.5,0-1,0-1.5
		c0-0.7,0.3-1.2,0.8-1.4c0.6-0.3,1.1-0.2,1.6,0.1c0.4,0.3,0.7,0.7,0.7,1.3c0,1.6,0,3.2,0,4.8c0,0.2,0.1,0.6,0.4,0.7
		c0.2,0,0.4,0,0.5-0.1c0.1-0.1,0.2-0.3,0.2-0.5l0-0.8c0-0.9,0-1.7,0-2.6c0-0.6,0.2-1,0.7-1.3c0.5-0.3,1-0.4,1.5-0.1
		c0.6,0.3,0.9,0.8,0.9,1.4l0,0.4c0,1.4,0,2.9,0,4.3c0,0.4,0.2,0.6,0.3,0.7c0.2,0.1,0.4,0.1,0.5,0c0.2-0.1,0.3-0.3,0.3-0.5
		c0-0.5,0-1.1,0-1.6c0-0.6,0-1.1,0-1.7c0-0.5,0.2-1,0.5-1.3c0.3-0.3,0.7-0.4,1.2-0.4c0.8,0.1,1.4,0.7,1.4,1.5l0,2.1
		C72.3,63.1,72.3,65.1,72.3,67z M82.8,58.8c0,1.6-1.3,3-3,3h-6.4c0-0.1,0-0.2,0-0.3c0-0.8,0-1.6,0-2.4c0-1.3-1-2.5-2.4-2.7
		c-0.6-0.1-1.1,0-1.7,0.3l-0.3,0.2l-0.2-0.3c-0.4-0.7-1-1.2-1.7-1.5c-0.7-0.2-1.4-0.2-2.1,0.2l-0.3,0.2l-0.2-0.3
		c0-0.1-0.1-0.1-0.1-0.2c0-0.1-0.1-0.1-0.1-0.2c-0.1-0.1-0.2-0.2-0.3-0.3c0,0-0.1-0.1-0.2-0.2l-0.1-0.1c0,0-0.1-0.1-0.2-0.1
		c-0.1,0-0.2-0.1-0.2-0.1l-0.1,0c-0.1,0-0.1-0.1-0.2-0.1c-0.6-0.2-1.3-0.2-2,0.1L60.5,54v-6.4c0-1.5-1.2-2.7-2.7-2.7
		c-1.5,0-2.7,1.2-2.7,2.7c0,1.1,0,2.1,0,3.2l0,3.9c0,1.1,0,2.2,0,3.1v1.7l-0.9-0.8c-0.4-0.4-0.9-0.8-1.3-1.3
		c-0.5-0.5-1.2-0.8-1.9-0.8l-0.1,0c-0.8,0-1.5,0.4-1.9,0.9c-0.8,0.9-0.8,2.2-0.1,3.4c0.1,0.3,0.3,0.5,0.4,0.8h-29c-1.6,0-3-1.3-3-3
		V29c0-1.6,1.3-3,3-3h59.7c1.6,0,3,1.3,3,3V58.8z"/>
</g>
</svg>
