<?xml version="1.0" encoding="utf-8"?>
<!-- Generator: Adobe Illustrator 25.2.1, SVG Export Plug-In . SVG Version: 6.00 Build 0)  -->
<svg version="1.1" id="Layer_1" xmlns="http://www.w3.org/2000/svg" xmlns:xlink="http://www.w3.org/1999/xlink" x="0px" y="0px"
	 viewBox="0 0 100 100" style="enable-background:new 0 0 100 100;" xml:space="preserve">
<style type="text/css">
	.st0{fill:#F08418;}
</style>
<path class="st0" d="M50,100C22.4,100,0,77.6,0,50S22.4,0,50,0s50,22.4,50,50S77.6,100,50,100z M50,2.2C23.7,2.2,2.2,23.7,2.2,50
	S23.7,97.8,50,97.8S97.8,76.3,97.8,50S76.3,2.2,50,2.2z"/>
<path class="st0" d="M31.3,48.6C30,50,29.9,52.1,31,53.9c0.9,1.6,1.9,3.4,2.9,5.4c0.7,1.4,1.4,2.9,2.1,4.2l0.1,0.2
	c0.9,1.9,1.9,3.8,2.9,5.7c0.9,1.8,2.1,3.4,3.5,4.7c1.5,1.4,3.1,2.1,4.9,2.1c0.1,0,0.1,0,0.2,0c2.3,0,4.6,0,7.2,0c1.4,0,3,0,4.5,0
	c0.4,0,0.8-0.1,1.1-0.2c1.8-0.8,3.4-1.9,4.9-3.3c3-2.9,4.5-6.2,4.4-10.1c0-2.7,0-5.4,0-8.1c0-1.2,0-2.5,0-3.7c0-2.1-1.6-3.9-3.7-4.2
	c-1-0.1-2,0.1-3,0.6l-0.2,0.1l-0.1-0.2c-0.6-1.3-1.6-2.2-2.8-2.6c-1.2-0.4-2.5-0.2-3.7,0.5l-0.2,0.1L56,45.1
	c-0.1-0.2-0.2-0.4-0.3-0.6l-0.1-0.1c-0.1-0.1-0.1-0.2-0.2-0.3l0,0c-0.1-0.2-0.3-0.3-0.4-0.5l0,0c-0.1-0.1-0.2-0.2-0.3-0.3
	c0,0-0.1-0.1-0.2-0.1c-0.1-0.1-0.2-0.1-0.2-0.2c-0.1-0.1-0.2-0.2-0.4-0.2l0,0c0,0,0,0-0.1,0c-0.1-0.1-0.3-0.1-0.4-0.2
	c-1.1-0.4-2.4-0.3-3.8,0.3l-0.1,0.1V33c0-2.4-1.9-4.2-4.3-4.2c-2.4,0-4.3,1.9-4.3,4.2c0,1.7,0,3.4,0,5.1l0,5.9c0,1.7,0,3.4,0,4.9
	l0,2.6l-1.3-1.1c-0.7-0.6-1.4-1.3-2.1-2c-0.8-0.8-1.9-1.3-3.1-1.3c-0.1,0-0.1,0-0.2,0C33.1,47.1,32,47.6,31.3,48.6z M33,49.5
	c1-0.8,2.3-0.8,3.2,0.1c1.6,1.6,3.2,3.2,4.7,4.8l0.2,0.2c0.4,0.4,0.8,0.5,1.3,0.3c0.4-0.2,0.6-0.6,0.5-1.2c0-0.1,0-0.3,0-0.4v-2.9
	c0-5.8,0-11.5,0-17.3c0-1.4,0.7-2.3,1.9-2.6c0.7-0.2,1.5,0,2,0.4c0.6,0.4,0.9,1.1,0.9,1.9c0,2.3,0,4.5,0,6.8l0,5.2
	c0,2.3,0,4.5,0,6.8c0,0.4,0.2,0.8,0.5,1c0.3,0.2,0.6,0.2,0.9,0c0.4-0.2,0.6-0.5,0.6-0.9c0-0.8,0-1.6,0-2.4l0-0.4c0-0.8,0-1.6,0-2.4
	c0-1,0.4-1.8,1.3-2.2c0.8-0.4,1.7-0.4,2.5,0.2c0.7,0.5,1,1.1,1,2c0,2.5,0,4.9,0,7.4c0,0.6,0.3,1,0.7,1.1c0.3,0.1,0.6,0,0.8-0.1
	c0.2-0.2,0.4-0.5,0.4-0.8l0-1.2c0-1.3,0-2.7,0-4.1c0-0.9,0.4-1.6,1.1-2.1c0.7-0.5,1.6-0.5,2.3-0.2c0.9,0.4,1.4,1.2,1.4,2.2l0,0.3
	c0,2.4,0,4.8,0,7.2c0,0.5,0.2,0.9,0.6,1.1c0.3,0.1,0.6,0.1,0.9,0c0.3-0.2,0.4-0.5,0.4-0.8c0-0.9,0-1.7,0-2.6c0-0.9,0-1.8,0-2.6
	c0-0.8,0.3-1.5,0.8-1.9c0.5-0.4,1.1-0.6,1.9-0.6c1.2,0.1,2.2,1.1,2.2,2.4c0,1.1,0,2.1,0,3.2c0,3,0,6,0,9.1c0,3.2-1.4,6-4.1,8.4
	c-0.3,0.3-0.7,0.6-1.1,0.9l-0.3,0.2c-1.5,1.2-3,1.7-4.8,1.7c-0.1,0-0.3,0-0.4,0c-1.3-0.1-2.7-0.1-4.3-0.1c-1.5,0-3.1,0-4.6,0.1
	l-0.7,0c-1.3,0-2.5-0.4-3.5-1.4c-1.3-1.2-2.3-2.7-3.1-4.1c-1.4-2.3-2.6-4.9-3.7-7.3l0,0c-0.4-0.8-0.7-1.6-1.1-2.3
	C35,57.2,33.8,55,32.7,53C31.9,51.6,32,50.3,33,49.5z"/>
<path class="st0" d="M53.7,32c0-4.7-3.8-8.4-8.4-8.4c-4.7,0-8.4,3.8-8.4,8.4c0,2.5,1.1,4.9,3.1,6.5l0,0l0-2
	c-1.1-1.3-1.7-2.9-1.7-4.6c0-3.9,3.2-7,7-7c3.9,0,7,3.2,7,7c0,1.8-0.7,3.4-1.9,4.7l0,0v1.9l0,0C52.5,37,53.7,34.6,53.7,32z"/>
</svg>
