<?xml version="1.0" encoding="utf-8"?>
<!-- Generator: Adobe Illustrator 25.2.1, SVG Export Plug-In . SVG Version: 6.00 Build 0)  -->
<svg version="1.1" id="Layer_1" xmlns="http://www.w3.org/2000/svg" xmlns:xlink="http://www.w3.org/1999/xlink" x="0px" y="0px"
	 viewBox="0 0 100 100" style="enable-background:new 0 0 100 100;" xml:space="preserve">
<style type="text/css">
	.st0{fill:#F08418;}
	.st1{fill:#FFFFFF;}
</style>
<path class="st0" d="M50,100C22.4,100,0,77.6,0,50S22.4,0,50,0s50,22.4,50,50S77.6,100,50,100z"/>
<g>
	<path class="st1" d="M39.5,76.6h25.6c0.3,0,0.5-0.1,0.6-0.3l7.8-7.8c0.2-0.2,0.3-0.4,0.3-0.6V26.4c0-1.7-1.4-3-3-3H39.5
		c-1.7,0-3,1.4-3,3v7.4l-0.2,0c-6,1.7-10.2,7.3-10.2,13.5s4.2,11.7,10.2,13.4l0.2,0v12.7C36.5,75.2,37.8,76.6,39.5,76.6z M66,73.5
		v-3.5c0-0.6,0.5-1.2,1.2-1.2h3.5L66,73.5z M38.3,26.4c0-0.6,0.5-1.2,1.2-1.2h31.3c0.6,0,1.2,0.5,1.2,1.2v3.7H38.3V26.4z M38.3,31.9
		H72v35h-4.8c-1.7,0-3,1.4-3,3v4.8H39.5c-0.6,0-1.2-0.5-1.2-1.2V61.2l0.3,0c4.6,0.5,9.1-1.3,12.1-4.7l0.1-0.1h7.1
		c0.5,0,0.9-0.4,0.9-0.9s-0.4-0.9-0.9-0.9h-5.8l0.2-0.4c1-1.8,1.6-3.7,1.8-5.7l0-0.2h3.8c0.5,0,0.9-0.4,0.9-0.9
		c0-0.5-0.4-0.9-0.9-0.9h-3.8v-0.2c-0.1-2-0.7-3.9-1.7-5.7l-0.2-0.4h5.6c0.5,0,0.9-0.4,0.9-0.9c0-0.5-0.4-0.9-0.9-0.9h-7l-0.1-0.1
		c-3-3.6-7.6-5.4-12.3-4.9l-0.3,0C38.3,33.4,38.3,31.9,38.3,31.9z M28,47.4c0-6.7,5.4-12.2,12.2-12.2s12.2,5.4,12.2,12.2
		s-5.4,12.2-12.2,12.2S28,54.1,28,47.4z"/>
	<path class="st1" d="M66.2,38.5h-3.8c-0.5,0-0.9,0.4-0.9,0.9c0,0.5,0.4,0.9,0.9,0.9h3.8c0.5,0,0.9-0.4,0.9-0.9
		C67.1,38.8,66.7,38.5,66.2,38.5z"/>
	<path class="st1" d="M66.2,46.6h-3.8c-0.5,0-0.9,0.4-0.9,0.9c0,0.5,0.4,0.9,0.9,0.9h3.8c0.5,0,0.9-0.4,0.9-0.9
		C67.1,47,66.7,46.6,66.2,46.6z"/>
	<path class="st1" d="M66.2,54.6h-3.8c-0.5,0-0.9,0.4-0.9,0.9s0.4,0.9,0.9,0.9h3.8c0.5,0,0.9-0.4,0.9-0.9S66.7,54.6,66.2,54.6z"/>
	<path class="st1" d="M66.2,62.8H55.5c-0.5,0-0.9,0.4-0.9,0.9c0,0.5,0.4,0.9,0.9,0.9h10.7c0.5,0,0.9-0.4,0.9-0.9
		C67.1,63.2,66.7,62.8,66.2,62.8z"/>
	<path class="st1" d="M45.1,44.3c-0.4-0.4-1.1-0.4-1.5,0l-4.5,4.5l-2.3-2.3c-0.4-0.4-1.1-0.4-1.5,0c-0.4,0.4-0.4,1.1,0,1.5l3.1,3.1
		c0.2,0.2,0.5,0.3,0.8,0.3c0,0,0,0,0,0c0.3,0,0.6-0.1,0.8-0.3l5.2-5.2c0.2-0.2,0.3-0.5,0.3-0.8C45.4,44.8,45.3,44.5,45.1,44.3z"/>
</g>
</svg>
