<?xml version="1.0" encoding="utf-8"?>
<!-- Generator: Adobe Illustrator 25.2.1, SVG Export Plug-In . SVG Version: 6.00 Build 0)  -->
<svg version="1.1" id="Layer_1" xmlns="http://www.w3.org/2000/svg" xmlns:xlink="http://www.w3.org/1999/xlink" x="0px" y="0px"
	 viewBox="0 0 100 100" style="enable-background:new 0 0 100 100;" xml:space="preserve">
<style type="text/css">
	.st0{fill:#F08418;}
</style>
<path class="st0" d="M50,100C22.4,100,0,77.6,0,50S22.4,0,50,0s50,22.4,50,50S77.6,100,50,100z M50,2.2C23.7,2.2,2.2,23.7,2.2,50
	S23.7,97.8,50,97.8S97.8,76.3,97.8,50S76.3,2.2,50,2.2z"/>
<g>
	<path class="st0" d="M53.2,60.3h1.1c0.6,0,1.1-0.1,1.6-0.3c0.4-0.2,0.8-0.5,1-0.8c0.2-0.4,0.3-0.8,0.3-1.3l0-0.1H56v0.1
		c0,0.5-0.1,0.8-0.4,1.1c-0.2,0.2-0.6,0.4-1.1,0.4h-0.2v-1.2l1.6-0.9v-0.7l-1.6,0.9v-0.2l1.6-0.9v-0.7l-1.6,0.9v-0.9h-1.2v1.5
		l-0.7,0.4v0.7l0.7-0.4V58l-0.7,0.4v0.7l0.7-0.4V60.3z"/>
	<path class="st0" d="M47.4,57.9c0,3.8,3.1,7,7,7c3.8,0,7-3.1,7-7c0-3.8-3.1-7-7-7C50.6,51,47.4,54.1,47.4,57.9z M49.1,57.9
		c0-2.9,2.4-5.3,5.3-5.3c2.9,0,5.3,2.4,5.3,5.3s-2.4,5.3-5.3,5.3C51.4,63.3,49.1,60.9,49.1,57.9z"/>
	<path class="st0" d="M55.3,45.3c0.5,0,0.9-0.4,0.9-0.9s-0.4-0.9-0.9-0.9H44.7c-0.5,0-0.9,0.4-0.9,0.9s0.4,0.9,0.9,0.9H55.3z"/>
	<path class="st0" d="M44.7,41.8h10.6c0.5,0,0.9-0.4,0.9-0.9s-0.4-0.9-0.9-0.9H44.7c-0.5,0-0.9,0.4-0.9,0.9S44.2,41.8,44.7,41.8z"/>
	<path class="st0" d="M43,58.5h-3.5c-0.5,0-0.9,0.4-0.9,0.9c0,0.5,0.4,0.9,0.9,0.9H43c0.5,0,0.9-0.4,0.9-0.9
		C43.9,58.9,43.5,58.5,43,58.5z"/>
	<path class="st0" d="M43,55.5h-3.5c-0.5,0-0.9,0.4-0.9,0.9c0,0.5,0.4,0.9,0.9,0.9H43c0.5,0,0.9-0.4,0.9-0.9
		C43.9,55.9,43.5,55.5,43,55.5z"/>
	<path class="st0" d="M61.4,67.5H45.6c-0.5,0-0.9,0.4-0.9,0.9c0,0.5,0.4,0.9,0.9,0.9h15.8c0.5,0,0.9-0.4,0.9-0.9
		C62.4,68,62,67.5,61.4,67.5z"/>
	<path class="st0" d="M70.2,23.5H29.8c-2.5,0-4.5,2-4.5,4.5v8.8c0,2.5,2,4.5,4.5,4.5h3.5v34.3l0,0.1h0c0,0.1,0,0.2,0.1,0.3
		c0,0,0,0,0,0.1l0,0c0,0.1,0.1,0.1,0.1,0.2c0,0,0.1,0.1,0.1,0.1c0.1,0,0.1,0.1,0.2,0.1l0,0c0,0,0.1,0,0.1,0c0,0,0,0,0,0c0,0,0,0,0,0
		c0.1,0,0.1,0,0.2,0l0,0c0,0,0,0,0,0h31.7c0,0,0,0,0.1,0c0,0,0,0,0,0c0.1,0,0.1,0,0.2,0c0.1,0,0.1,0,0.2-0.1c0,0,0,0,0,0
		c0,0,0,0,0.1,0c0,0,0.1,0,0.1-0.1l0,0c0,0,0,0,0,0c0.1-0.1,0.1-0.2,0.2-0.3c0,0,0,0,0-0.1c0-0.1,0.1-0.2,0.1-0.3V41.3h3.5
		c2.5,0,4.5-2,4.5-4.5V28C74.7,25.6,72.7,23.6,70.2,23.5z M29.8,25.4h40.5c1.4,0,2.5,1.1,2.6,2.5c-0.7-0.5-1.7-0.8-2.6-0.8
		c0,0,0,0,0,0H29.8c0,0,0,0,0,0c-0.9,0-1.8,0.3-2.6,0.8C27.2,26.5,28.4,25.4,29.8,25.4z M33.2,35.9h-1.7c-0.5,0-0.8-0.4-0.8-0.8
		v-1.8c0-0.5,0.4-0.8,0.8-0.8h1.7V35.9z M64.9,33v1.1V36v1.2v37.4H35.1V36.5V36v-1.9v-1.6h29.8V33z M72.8,36.8
		c0,1.4-1.2,2.6-2.6,2.6h-3.5v-1.6h1.7c1.5,0,2.7-1.2,2.7-2.7v-1.8c0-1.5-1.2-2.7-2.7-2.7h-37c-1.5,0-2.7,1.2-2.7,2.7V35
		c0,1.5,1.2,2.7,2.7,2.7h1.7v1.6h-3.5c-1.4,0-2.6-1.2-2.6-2.6v-5.3c0-1.4,1.2-2.6,2.6-2.6h40.5c1.4,0,2.6,1.2,2.6,2.6V36.8z
		 M66.8,35.9v-3.4h1.7c0.5,0,0.8,0.4,0.8,0.8V35c0,0.5-0.4,0.8-0.8,0.8H66.8z"/>
</g>
</svg>
