<?xml version="1.0" encoding="utf-8"?>
<!-- Generator: Adobe Illustrator 25.2.1, SVG Export Plug-In . SVG Version: 6.00 Build 0)  -->
<svg version="1.1" id="Layer_1" xmlns="http://www.w3.org/2000/svg" xmlns:xlink="http://www.w3.org/1999/xlink" x="0px" y="0px"
	 viewBox="0 0 100 100" style="enable-background:new 0 0 100 100;" xml:space="preserve">
<style type="text/css">
	.st0{fill:#F08418;}
	.st1{fill:#FFFFFF;}
</style>
<path class="st0" d="M50,100C22.4,100,0,77.6,0,50S22.4,0,50,0s50,22.4,50,50S77.6,100,50,100z"/>
<g>
	<rect x="26.9" y="47.9" class="st0" width="35.3" height="1.7"/>
	<rect x="65.1" y="47.9" class="st0" width="8" height="1.7"/>
</g>
<g>
	<path class="st1" d="M54.3,44C54.3,44,54.3,44,54.3,44c-0.3,0-0.5,0.1-0.7,0.3L50,47.9l-1.8-1.8c-0.4-0.4-1-0.4-1.4,0
		c-0.4,0.4-0.4,1,0,1.4l2.5,2.5c0.2,0.2,0.4,0.3,0.7,0.3l0,0c0.3,0,0.5-0.1,0.7-0.3l4.3-4.3c0.2-0.2,0.3-0.4,0.3-0.7
		c0-0.3-0.1-0.5-0.3-0.7C54.8,44.1,54.6,44,54.3,44z M50,50.2L50,50.2L50,50.2L50,50.2z"/>
	<path class="st1" d="M70.6,22.9H31.4c-2.5,0-4.6,2-4.6,4.6v39.3c0,2.2,1.5,4,3.6,4.4v1.8c0,2,1.6,3.7,3.7,3.7h8.8
		c2,0,3.7-1.6,3.7-3.7v-1.7h8.8v1.7c0,2,1.6,3.7,3.7,3.7h8.8c2,0,3.7-1.6,3.7-3.7v-1.8c2.2-0.4,3.7-2.3,3.7-4.5V27.5
		C75.1,25,73.1,22.9,70.6,22.9z M69.4,71.4v1.7c0,1-0.8,1.7-1.7,1.7h-8.8c-1,0-1.7-0.8-1.7-1.7v-1.7H69.4z M44.6,71.4v1.7
		c0,1-0.8,1.7-1.7,1.7h-8.8c-1,0-1.7-0.8-1.7-1.7v-1.7H44.6z M28.8,27.5c0-1.4,1.2-2.6,2.6-2.6h39.2c1.4,0,2.6,1.2,2.6,2.6v39.3
		c0,1.4-1.2,2.6-2.6,2.6H31.4c-1.4,0-2.6-1.2-2.6-2.6V27.5z"/>
	<path class="st1" d="M35.7,65.1h30.4c1.5,0,2.8-1.2,2.8-2.8v-0.8c1.5,0,2.7-1.3,2.7-2.8v-5.4c0-1.5-1.2-2.7-2.7-2.8v-6.9
		c1.5,0,2.7-1.3,2.7-2.8v-5.4c0-1.5-1.2-2.7-2.7-2.8v-0.8c0-1.5-1.2-2.8-2.8-2.8H35.7c-1.5,0-2.8,1.2-2.8,2.8v30.4
		C32.9,63.9,34.2,65.1,35.7,65.1z M66.2,58.8v-5.4c0-0.5,0.4-0.8,0.8-0.8h1.8c0.5,0,0.8,0.4,0.8,0.8v5.4c0,0.5-0.4,0.8-0.8,0.8H67
		C66.5,59.6,66.2,59.2,66.2,58.8z M69.6,40.9c0,0.5-0.4,0.8-0.8,0.8H67c-0.5,0-0.8-0.4-0.8-0.8v-5.4c0-0.5,0.4-0.8,0.8-0.8h1.8
		c0.5,0,0.8,0.4,0.8,0.8V40.9z M66.9,32.8c-1.5,0-2.7,1.3-2.7,2.8v5.4c0,1.5,1.2,2.7,2.7,2.8v7c-1.5,0-2.7,1.3-2.7,2.8v5.4
		c0,1.5,1.2,2.7,2.7,2.8v0.8c0,0.5-0.4,0.8-0.8,0.8H35.7c-0.5,0-0.8-0.4-0.8-0.8V32c0-0.5,0.4-0.8,0.8-0.8h30.4
		c0.5,0,0.8,0.4,0.8,0.8V32.8z"/>
	<path class="st1" d="M55,37.2c-2.7-1.1-5.6-1.1-8.3,0c-2.6,1.1-4.8,3.2-5.9,5.9c-1.1,2.7-1.1,5.6,0,8.3c1.1,2.7,3.2,4.7,5.8,5.9
		c1.3,0.6,2.7,0.8,4.1,0.8c1.4,0,2.8-0.3,4.1-0.8c2.7-1.1,4.7-3.2,5.9-5.8c1.1-2.7,1.1-5.6,0-8.3C59.8,40.4,57.7,38.3,55,37.2z
		 M57.4,49.9c-0.2,0.5,0,1.1,0.5,1.3l0.7,0.3c-0.8,1.5-2,2.7-3.5,3.5l-0.3-0.7c-0.1-0.2-0.3-0.4-0.5-0.5c-0.2-0.1-0.5-0.1-0.7,0
		c-0.2,0.1-0.4,0.3-0.5,0.5c-0.1,0.2-0.1,0.5,0,0.7l0.3,0.8c-1.6,0.5-3.3,0.5-5,0l0.3-0.7c0.2-0.5,0-1.1-0.5-1.3
		c-0.5-0.2-1.1,0-1.3,0.5l-0.3,0.7c-1.5-0.8-2.7-2-3.5-3.5l0.7-0.3c0.2-0.1,0.4-0.3,0.5-0.5c0.1-0.2,0.1-0.5,0-0.7
		c-0.1-0.2-0.3-0.4-0.5-0.5c-0.2-0.1-0.5-0.1-0.7,0l-0.8,0.3c-0.5-1.6-0.5-3.3,0-5L43,45c0.5,0.2,1.1,0,1.3-0.5
		c0.2-0.5,0-1.1-0.5-1.3l-0.7-0.3c0.9-1.5,2.1-2.7,3.5-3.5l0.3,0.7c0.1,0.2,0.3,0.4,0.5,0.5c0.2,0.1,0.5,0.1,0.7,0
		c0.2-0.1,0.4-0.3,0.5-0.5c0.1-0.2,0.1-0.5,0-0.7l-0.3-0.8c1.6-0.5,3.3-0.5,5,0l-0.3,0.7c-0.2,0.5,0,1.1,0.5,1.3
		c0.5,0.2,1.1,0,1.3-0.5l0.3-0.7c1.5,0.8,2.7,2,3.5,3.5l-0.7,0.3c-0.2,0.1-0.4,0.3-0.5,0.5c-0.1,0.2-0.1,0.5,0,0.7
		c0.1,0.2,0.3,0.4,0.5,0.5c0.2,0.1,0.5,0.1,0.7,0l0.8-0.3c0.5,1.6,0.5,3.3,0,5l-0.7-0.3C58.2,49.2,57.6,49.4,57.4,49.9z"/>
</g>
</svg>
