<?xml version="1.0" encoding="utf-8"?>
<!-- Generator: Adobe Illustrator 25.2.1, SVG Export Plug-In . SVG Version: 6.00 Build 0)  -->
<svg version="1.1" id="Layer_1" xmlns="http://www.w3.org/2000/svg" xmlns:xlink="http://www.w3.org/1999/xlink" x="0px" y="0px"
	 viewBox="0 0 100 100" style="enable-background:new 0 0 100 100;" xml:space="preserve">
<style type="text/css">
	.st0{fill:#F08418;}
</style>
<path class="st0" d="M50,100C22.4,100,0,77.6,0,50S22.4,0,50,0s50,22.4,50,50S77.6,100,50,100z M50,2.2C23.7,2.2,2.2,23.7,2.2,50
	S23.7,97.8,50,97.8S97.8,76.3,97.8,50S76.3,2.2,50,2.2z"/>
<g>
	<path class="st0" d="M54.3,23.6c-6.2,0-11.3,5.1-11.3,11.3s5.1,11.3,11.3,11.3s11.3-5.1,11.3-11.3S60.6,23.6,54.3,23.6z M54.3,44.3
		c-5.2,0-9.4-4.2-9.4-9.4s4.2-9.4,9.4-9.4s9.4,4.2,9.4,9.4C63.8,40.1,59.5,44.3,54.3,44.3z"/>
	<path class="st0" d="M59.6,66c2.4,0,4.7-0.9,6.4-2.6c0,0,0.2-0.3,1.6-1.9c1.3-1.5,3.6-4.3,7.8-9.3c1.4-1.7,1.2-4.3-0.5-5.7
		s-4.2-1.2-5.7,0.5L63,53.4l0-0.2c-0.8-1-1.9-1.5-3.1-1.5H48.3c-1.6-0.7-3.4-1-5.1-1c-5.1,0-9.3,2.4-11.6,6.6v0.1h-0.1
		c-0.2,0-0.4-0.1-0.6-0.1c-0.8,0-1.6,0.3-2.1,0.9l-4.9,4.9c-0.4,0.4-0.4,1,0,1.3l11.6,11.7c0.4,0.4,1,0.4,1.3,0l5-4.9
		c0.8-0.8,1.1-2,0.7-3.1V68l1.1-1.1c0.6-0.6,1.4-0.9,2.2-0.9H59.6z M40.5,69.9l-4.3,4.3l-0.1-0.1L25.9,63.8l4.3-4.3
		c0.4-0.4,0.9-0.4,1.4-0.2c0.1,0.1,0.1,0.1,1.9,1.8c1.3,1.3,3.4,3.4,7.1,7.1C40.9,68.7,40.9,69.4,40.5,69.9z M42.3,65.6l-0.9,0.9
		l-8.2-8.2v-0.1c1.9-3.6,5.5-5.6,10-5.6c1.6,0,3.1,0.3,4.6,1c0.1,0.1,0.2,0.1,0.4,0.1H60c1.2,0,2.2,1,2.2,2.2s-1,2.2-2.2,2.2h-8.4
		c-0.5,0-0.9,0.4-0.9,0.9s0.4,0.9,0.9,0.9H60c2.2,0,4-1.8,4-4c0-0.2,0-0.3,0-0.5l0,0l0,0l4.6-4.7c1.7-1.8,2.1-2.2,2.2-2.2
		c0.8-0.9,2.1-1,3.1-0.3c0.9,0.8,1,2.1,0.3,3.1l-9.3,11.1c-1.4,1.3-3.2,2.1-5.1,2.1H45.9C44.6,64.2,43.3,64.7,42.3,65.6z"/>
	<path class="st0" d="M53.4,38.7c1,0,1.9-0.2,2.6-0.5c0.7-0.3,1.2-0.8,1.6-1.3c0.3-0.6,0.5-1.2,0.5-2h-1.6c0,0.8-0.2,1.4-0.7,1.8
		c-0.4,0.5-1.1,0.7-2,0.7h-0.5v-2.3l2.7-1.4v-0.8l-2.7,1.4v-0.8l2.7-1.4v-0.7l-2.7,1.4v-1.7h-1.6v2.5l-1.1,0.6v0.7l1.1-0.6v0.8
		l-1.1,0.6v0.8l1.1-0.6v2.8H53.4z"/>
</g>
</svg>
