<?xml version="1.0" encoding="utf-8"?>
<!-- Generator: Adobe Illustrator 25.2.1, SVG Export Plug-In . SVG Version: 6.00 Build 0)  -->
<svg version="1.1" id="Layer_1" xmlns="http://www.w3.org/2000/svg" xmlns:xlink="http://www.w3.org/1999/xlink" x="0px" y="0px"
	 viewBox="0 0 100 100" style="enable-background:new 0 0 100 100;" xml:space="preserve">
<style type="text/css">
	.st0{fill:#F08418;}
	.st1{fill:#FFFFFF;}
</style>
<path class="st0" d="M50,100C22.4,100,0,77.6,0,50S22.4,0,50,0s50,22.4,50,50S77.6,100,50,100z"/>
<g>
	<path class="st1" d="M66.9,55c-0.1-0.1-0.3-0.2-0.6-0.2c-0.6,0-0.9,0.4-0.9,1c0,1.3,0,2.7,0,4l0,2.6H63v-2c0-1,0-2.1,0-3.1
		c0-0.6-0.3-1-0.8-1l0,0c-0.6,0-0.9,0.3-0.9,1c0,0.2,0,0.4,0,0.7l0,4.5h-2.4l0-3.5c0-1.5,0-3,0-4.5c0-0.8-0.1-1.2-0.8-1.3
		c-0.2,0-0.4,0-0.6,0.2c-0.2,0.2-0.3,0.6-0.3,1.1c0,1.2,0,2.4,0,3.6c0,1.1,0,2.1,0,3.2c0,0.2,0,0.5,0,0.7c0,0.1,0,0.2,0,0.3l0,0.1
		h-2.3V60c0-1,0-2.1,0-3.2c0-0.4-0.1-0.6-0.3-0.8c-0.1-0.1-0.3-0.2-0.6-0.2c0,0,0,0,0,0c0,0,0,0,0,0c-0.6,0-0.8,0.3-0.8,1
		c0,2.5,0,4.5,0,6.4c0,0.7,0.3,1,1,1c3,0,6,0,9,0h3c0.4,0,0.6-0.1,0.8-0.3c0.2-0.2,0.3-0.4,0.3-0.8c0-2.9,0-5.2,0-7.3
		C67.2,55.5,67.1,55.2,66.9,55z"/>
	<path class="st1" d="M64.8,35.7c-1,0-2,0-2.9,0l-0.3,0c-1,0-1.9,0-2.9,0c-0.5,0-1,0-1.4,0c-0.7,0-1.4,0-1.9,0c-1.2,0-2,0.7-2,2
		c0,0.7,0,1.3,0,2c0,1.2,0.8,1.9,1.9,1.9c3.2,0,6.4,0,9.7,0c1.2,0,1.9-0.7,2-1.9c0-0.6,0-1.2,0-2C66.8,36.4,66.1,35.7,64.8,35.7z
		 M65,39.6c-0.2,0.3-0.7,0.3-1.6,0.3h-3.6c-1.2,0-2.4,0-3.6,0c-0.2,0-0.4,0-0.6,0l-0.5,0v-2.3h9.9l0,0.1c0,0,0,0.1,0,0.1
		c0,0.1,0.1,0.1,0.1,0.2C65.2,38.9,65.2,39.3,65,39.6z"/>
	<path class="st1" d="M44.7,58.4c-1,0-2,0-3,0l-1.7,0c-0.5,0-1,0-1.4,0c-0.5,0-1,0-1.4,0c-0.7,0-1.4,0-1.9,0c-1.2,0-2,0.7-2,2
		c0,0.7,0,1.3,0,2c0,1.2,0.8,1.9,1.9,1.9c3.2,0,6.3,0,9.7,0c1.2,0,1.9-0.7,2-1.9c0-0.6,0-1.2,0-2C46.7,59.1,46,58.4,44.7,58.4z
		 M44.9,62.2L44.9,62.2c-0.2,0.3-0.7,0.3-1.6,0.3h-3.6c-1.2,0-2.4,0-3.6,0c-0.2,0-0.4,0-0.6,0l-0.1,0c-0.1,0-0.1,0-0.2,0l-0.1,0
		v-2.3h9.9l0,0.1c0,0,0,0.1,0,0.1c0,0.1,0.1,0.1,0.1,0.2C45.1,61.5,45.1,62,44.9,62.2z"/>
	<path class="st1" d="M40,35.7L40,35.7c-1.5,0-2.9,0.6-3.9,1.7c-1.1,1.1-1.6,2.4-1.6,3.9c0,3,2.6,5.5,5.6,5.5c1.5,0,2.9-0.6,3.9-1.6
		c1-1.1,1.6-2.4,1.6-3.9C45.5,38.1,43,35.7,40,35.7z M40,44.2L40,44.2c-1.6,0-3-1.4-3-2.9c0-0.8,0.3-1.6,0.9-2.1
		c0.6-0.6,1.3-0.9,2.1-0.9h0c1.6,0,2.9,1.3,2.9,3C42.9,42.9,41.6,44.2,40,44.2z"/>
	<path class="st1" d="M66,27.5h-4c-0.5,0-0.8,0.4-0.8,0.8c0,0.5,0.4,0.8,0.8,0.8h4c0.5,0,0.8-0.4,0.8-0.8
		C66.8,27.8,66.4,27.5,66,27.5z"/>
	<path class="st1" d="M19.2,72.1l-1.1,0.9c-0.8,0.7-1.1,1.5-0.8,2.3c0.3,0.8,1,1.3,2.1,1.3c20.4,0,40.8,0,61.2,0
		c1.1,0,1.8-0.4,2.1-1.3c0.3-0.8,0-1.6-0.8-2.3c-0.6-0.5-1.3-1.1-1.9-1.5l-0.2-0.2c-0.4-0.3-0.8-0.7-1.2-1c-0.3-0.2-0.6-0.5-0.9-0.7
		c-0.7-0.5-1.5-1-1.9-1.8c-0.4-0.8-0.3-1.8-0.3-2.7l0-0.1c0-0.3,0-0.7,0-1c0-4.9,0-9.7,0-14.6v-7.3c0-1.8-0.6-2.4-2.4-2.4l-1.7,0
		l0-4.8c0-2.8,0-5.7,0-8.6c0-1.9-1.2-3.1-3.1-3.1c-13,0-24.9,0-36.5,0c-2.1,0-3.3,1.1-3.3,3.3c0,2.9,0,5.7,0,8.6v4.6h-1.4
		c-2.2,0-2.7,0.5-2.7,2.8l0,5c0,6.8,0,13,0,19.3c0,0.7-0.2,1.1-0.7,1.6C22.1,69.7,20.6,71,19.2,72.1z M30.3,26.2
		c0-0.4,0.7-0.9,1.2-1.1c0.3-0.1,0.7-0.1,1.1-0.1c0.1,0,0.3,0,0.5,0h8.7c8.7,0,17.4,0,26.1,0c1.6,0,1.9,0.3,1.9,2c0,0.7,0,1.5,0,2.3
		l0,2.2H30.3v-0.2c0-0.5,0-0.9,0-1.4C30.3,28.8,30.3,27.5,30.3,26.2z M49,33.4v15.6h-3.5l0,0l-0.1,0l-15.1,0V33.4H49z M26.2,41.7
		h2.3v8.5c0,4.6,0,9.3,0,13.9c0,0.5,0.1,0.8,0.3,1c0.1,0.1,0.3,0.2,0.6,0.2c0.3,0,0.5-0.1,0.6-0.2c0.2-0.2,0.3-0.5,0.3-1
		c0-0.1,0-0.2,0-0.3l0-12.8h18.9l0,7.6c0,1.8,0,3.6,0,5.5c0,0.5,0.1,0.8,0.3,1c0.1,0.1,0.3,0.2,0.6,0.2h0c0.3,0,0.5-0.1,0.6-0.2
		c0.2-0.2,0.3-0.5,0.3-1c0-0.1,0-0.3,0-0.4l0-0.2l0-30.1h18.9l0,13.6l0,0v3.1c0,4.6,0,9.3,0,13.9c0,0.5,0.1,0.8,0.3,1
		c0.1,0.1,0.3,0.2,0.6,0.2h0c0.3,0,0.5-0.1,0.6-0.2c0.2-0.2,0.3-0.5,0.3-1c0-0.1,0-0.2,0-0.4l0-22h2.3v26H26.2V41.7z M24.5,70.1
		c0.5-0.5,1.1-0.7,1.9-0.7l6.2,0c12.9,0,26.3,0,39.4,0H72c2.1,0,3.6,0.5,4.8,1.8c0.8,0.8,1.7,1.5,2.6,2.3l0.1,0.1
		c0.4,0.3,0.9,0.7,1.3,1.1l0.3,0.3H18.9l0.3-0.3c0.1-0.1,0.2-0.2,0.3-0.2l0,0c0.2-0.2,0.3-0.3,0.5-0.4c0.4-0.3,0.8-0.7,1.2-1
		l0.3-0.2C22.4,71.8,23.5,70.9,24.5,70.1z"/>
</g>
</svg>
