<?xml version="1.0" encoding="utf-8"?>
<!-- Generator: Adobe Illustrator 25.2.1, SVG Export Plug-In . SVG Version: 6.00 Build 0)  -->
<svg version="1.1" id="Layer_1" xmlns="http://www.w3.org/2000/svg" xmlns:xlink="http://www.w3.org/1999/xlink" x="0px" y="0px"
	 viewBox="0 0 100 100" style="enable-background:new 0 0 100 100;" xml:space="preserve">
<style type="text/css">
	.st0{fill:#F08418;}
</style>
<path class="st0" d="M50,100C22.4,100,0,77.6,0,50S22.4,0,50,0s50,22.4,50,50S77.6,100,50,100z M50,2.2C23.7,2.2,2.2,23.7,2.2,50
	S23.7,97.8,50,97.8S97.8,76.3,97.8,50S76.3,2.2,50,2.2z"/>
<g>
	<path class="st0" d="M67.9,39.7c-0.5,0-0.9,0.4-0.9,0.9v10.8c0,0.5,0.4,0.9,0.9,0.9c0.5,0,0.9-0.4,0.9-0.9V40.7
		C68.8,40.2,68.4,39.7,67.9,39.7z"/>
	<path class="st0" d="M64,39.7c-0.5,0-0.9,0.4-0.9,0.9v10.8c0,0.5,0.4,0.9,0.9,0.9c0.5,0,0.9-0.4,0.9-0.9V40.7
		C65,40.2,64.5,39.7,64,39.7z"/>
	<path class="st0" d="M59.8,39.7c-0.5,0-0.9,0.4-0.9,0.9v10.8c0,0.5,0.4,0.9,0.9,0.9c0.5,0,0.9-0.4,0.9-0.9V40.7
		C60.7,40.2,60.3,39.7,59.8,39.7z"/>
	<path class="st0" d="M55.7,39.7c-0.5,0-0.9,0.4-0.9,0.9v10.8c0,0.5,0.4,0.9,0.9,0.9c0.5,0,0.9-0.4,0.9-0.9V40.7c0-0.1,0-0.1,0-0.2
		C56.5,40.1,56.1,39.7,55.7,39.7z"/>
	<path class="st0" d="M76.1,23.5h-38c-1.4,0-2.6,1.2-2.6,2.6v21h-9.6c-2.5,0-4.6,2.1-4.6,4.6v5.6c0,2.5,2,4.5,4.4,4.6l-3.8,11.2
		c-0.3,0.8-0.1,1.6,0.4,2.3c0.5,0.7,1.3,1.1,2.1,1.1h8.8c1.2,0,2.1-0.9,2.1-2.1v-1.9c0-1.2-0.9-2.1-2.1-2.1h-0.9
		c-0.1,0-0.2-0.1-0.2-0.1c0,0-0.1-0.1,0-0.2l1.5-4.5h2v0.8c0,1.4,1.2,2.6,2.6,2.6l38,0c1.4,0,2.6-1.2,2.6-2.6V26.1
		C78.8,24.6,77.6,23.5,76.1,23.5z M37.4,30h33.5c0.4,0,0.7,0.3,0.7,0.7v24.4c0,0.4-0.3,0.7-0.7,0.7H49.8l3-6.2l0,0
		c0.2-0.6,0.2-1.2-0.1-1.7c-0.3-0.5-0.9-0.8-1.4-0.8v-6.4c0-0.5-0.4-0.9-0.9-0.9c-0.5,0-0.9,0.4-0.9,0.9v6.4h-1.4v-6.4
		c0-0.5-0.4-0.9-0.9-0.9c-0.5,0-0.9,0.4-0.9,0.9v6.4h-2.2v-6.4c0-0.5-0.4-0.9-0.9-0.9S42,40.2,42,40.7v6.4h-4.6V30z M30.2,69.6
		c-0.2,0.6-0.1,1.3,0.3,1.9c0.4,0.5,1,0.9,1.7,0.9h0.9c0.1,0,0.2,0.1,0.2,0.2v1.9c0,0.1-0.1,0.2-0.2,0.2h-8.8
		c-0.2,0-0.4-0.1-0.6-0.3c-0.1-0.2-0.2-0.4-0.1-0.6l4-11.8h5.2L30.2,69.6z M25.9,60c-1.5,0-2.8-1.2-2.8-2.8v-5.6
		c0-1.5,1.2-2.8,2.8-2.8h2.1h1.1h11.4H51L45.7,60L25.9,60z M36.9,62.7c0,0.6-0.5,1.1-1.1,1.1h-1.7l0.6-1.9h2.2V62.7z M76.9,66.5
		c0,0.4-0.3,0.7-0.7,0.7h-38c-0.4,0-0.7-0.3-0.7-0.7v-1.3c0.9-0.5,1.4-1.5,1.4-2.5v-0.8h6.9c0.7,0,1.4-0.4,1.7-1.1l1.4-3h22
		c1.4,0,2.6-1.2,2.6-2.6V30.8c0-1.4-1.2-2.6-2.6-2.6H37.4v-2.1c0-0.4,0.3-0.7,0.7-0.7h38c0.4,0,0.7,0.3,0.7,0.7V66.5z"/>
</g>
</svg>
