<?xml version="1.0" encoding="utf-8"?>
<!-- Generator: Adobe Illustrator 25.2.1, SVG Export Plug-In . SVG Version: 6.00 Build 0)  -->
<svg version="1.1" id="Layer_1" xmlns="http://www.w3.org/2000/svg" xmlns:xlink="http://www.w3.org/1999/xlink" x="0px" y="0px"
	 viewBox="0 0 100 100" style="enable-background:new 0 0 100 100;" xml:space="preserve">
<style type="text/css">
	.st0{fill:#F08418;}
</style>
<path class="st0" d="M50,100.1c-27.6,0-50-22.4-50-50S22.4,0,50,0s50,22.4,50,50S77.6,100.1,50,100.1z M50,2.2
	C23.7,2.2,2.2,23.7,2.2,50S23.7,97.8,50,97.8S97.8,76.4,97.8,50S76.4,2.2,50,2.2z"/>
<g>
	<path class="st0" d="M78.2,46.3c-0.9-0.9-2-1.3-3.2-1.3c0,0,0,0,0,0h-8.5V33.4c0-1.2-0.5-2.4-1.3-3.2c-0.9-0.9-2-1.3-3.2-1.3
		c0,0,0,0,0,0l-36.8,0c0,0,0,0,0,0c-1.2,0-2.4,0.5-3.2,1.3c-0.9,0.9-1.3,2-1.3,3.2v17.1c0,1.2,0.5,2.4,1.3,3.2
		c0.9,0.9,2,1.3,3.2,1.3c0,0,0,0,0,0h8.5v11.5c0,1.2,0.5,2.4,1.3,3.2c0.9,0.9,2,1.3,3.2,1.3c0,0,0,0,0,0l36.8,0c0,0,0,0,0,0
		c1.2,0,2.4-0.5,3.2-1.3c0.9-0.9,1.3-2,1.3-3.2V49.6C79.6,48.3,79.1,47.2,78.2,46.3z M33.6,49.6v3.7l-8.5,0c0,0,0,0,0,0
		c-0.7,0-1.4-0.3-1.9-0.8c-0.5-0.5-0.8-1.2-0.8-1.9V33.4c0-0.7,0.3-1.4,0.8-1.9c0.5-0.5,1.2-0.8,1.9-0.8l36.8,0c0,0,0,0,0,0
		c0.7,0,1.4,0.3,1.9,0.8c0.5,0.5,0.8,1.2,0.8,1.9V45H38.2c0,0,0,0,0,0c-1.2,0-2.4,0.5-3.2,1.3C34,47.2,33.6,48.3,33.6,49.6z
		 M77.7,66.6c0,0.7-0.3,1.4-0.8,1.9c-0.5,0.5-1.2,0.8-1.9,0.8l-36.8,0c0,0,0,0,0,0c-0.7,0-1.4-0.3-1.9-0.8c-0.5-0.5-0.8-1.2-0.8-1.9
		V49.6c0-0.7,0.3-1.4,0.8-1.9c0.5-0.5,1.2-0.8,1.9-0.8H75h0c0.7,0,1.4,0.3,1.9,0.8c0.5,0.5,0.8,1.2,0.8,1.9V66.6z"/>
	<path class="st0" d="M46.8,49.2c-4.9,0-8.9,4-8.9,8.9s4,8.9,8.9,8.9c4.9,0,8.9-4,8.9-8.9S51.7,49.2,46.8,49.2z M46.8,65.3
		c-4,0-7.2-3.2-7.2-7.2s3.2-7.2,7.2-7.2s7.2,3.2,7.2,7.2S50.8,65.3,46.8,65.3z"/>
	<path class="st0" d="M33.5,33.1c-4.9,0-8.9,4-8.9,8.9s4,8.9,8.9,8.9c0.4,0,0.9,0,1.4-0.1l0-1.7c0,0,0,0,0,0c-0.5,0.1-1,0.1-1.4,0.1
		c-4,0-7.2-3.2-7.2-7.2c0-4,3.2-7.2,7.2-7.2c4,0,7.2,3.2,7.2,7.2c0,1.3-0.3,2.5-1,3.6h1.9c0.5-1.2,0.8-2.4,0.8-3.6
		C42.4,37.1,38.4,33.1,33.5,33.1z"/>
	<path class="st0" d="M47.6,54H46l-3.6,8.1h1.7l0.8-1.8h3.8l0.8,1.8l0,0.1h1.7L47.6,54z M48.1,59h-2.7l1.3-3.1L48.1,59z"/>
	<path class="st0" d="M36.7,42.5c-0.2-0.3-0.5-0.5-0.9-0.7c0.2-0.2,0.5-0.4,0.6-0.6c0.2-0.3,0.3-0.7,0.3-1.1c0-0.7-0.3-1.2-0.8-1.6
		c-0.5-0.4-1.3-0.6-2.2-0.6h-3.8V46h4c1,0,1.8-0.2,2.3-0.6c0.5-0.4,0.8-0.9,0.8-1.7C37.1,43.3,37,42.8,36.7,42.5z M34.7,41
		c-0.3,0.2-0.6,0.3-1.1,0.3h-2v-2h2c0.5,0,0.9,0.1,1.1,0.3c0.2,0.2,0.4,0.4,0.4,0.7C35,40.6,34.9,40.8,34.7,41z M31.6,42.6h2.3
		c1.1,0,1.6,0.3,1.6,1s-0.5,1-1.6,1h-2.3V42.6z"/>
	<path class="st0" d="M73.7,53.3H59.6c-1.2,0-2.3,1-2.3,2.3v5.1c0,1.2,1,2.3,2.3,2.3h14.1c1.2,0,2.3-1,2.3-2.3v-5.1
		C75.9,54.3,74.9,53.3,73.7,53.3z M74.3,60.6c0,0.3-0.3,0.6-0.6,0.6H59.6c-0.3,0-0.6-0.3-0.6-0.6v-5.1c0-0.3,0.3-0.6,0.6-0.6h14.1
		c0.3,0,0.6,0.3,0.6,0.6V60.6z"/>
	<path class="st0" d="M60.9,37.2H46.9c-1.2,0-2.3,1-2.3,2.3v5.1c0,1.2,1,2.3,2.3,2.3h14.1c1.2,0,2.3-1,2.3-2.3v-5.1
		C63.2,38.2,62.2,37.2,60.9,37.2z M61.5,44.5c0,0.3-0.3,0.6-0.6,0.6H46.9c-0.3,0-0.6-0.3-0.6-0.6v-5.1c0-0.3,0.3-0.6,0.6-0.6h14.1
		c0.3,0,0.6,0.3,0.6,0.6V44.5z"/>
	<polygon class="st0" points="76,48 75.6,47.6 74.9,48.4 74.1,47.6 73.7,48 74.5,48.8 73.7,49.5 74.1,49.9 74.9,49.1 75.6,49.9 
		76,49.5 75.2,48.8 	"/>
	<rect x="71.7" y="48.5" class="st0" width="1.3" height="0.5"/>
	<g>
		<polygon class="st0" points="62.9,31.7 62.5,31.4 61.7,32.1 61,31.4 60.6,31.7 61.4,32.5 60.6,33.3 61,33.7 61.7,32.9 62.5,33.7 
			62.9,33.3 62.1,32.5 		"/>
		<rect x="58.7" y="32.2" class="st0" width="1.3" height="0.5"/>
	</g>
</g>
</svg>
