<?xml version="1.0" encoding="utf-8"?>
<!-- Generator: Adobe Illustrator 25.2.1, SVG Export Plug-In . SVG Version: 6.00 Build 0)  -->
<svg version="1.1" id="Layer_1" xmlns="http://www.w3.org/2000/svg" xmlns:xlink="http://www.w3.org/1999/xlink" x="0px" y="0px"
	 viewBox="0 0 100 100" style="enable-background:new 0 0 100 100;" xml:space="preserve">
<style type="text/css">
	.st0{fill:#F08418;}
</style>
<path class="st0" d="M50,100C22.4,100,0,77.6,0,50S22.4,0,50,0s50,22.4,50,50S77.6,100,50,100z M50,2.3C23.7,2.3,2.2,23.7,2.2,50
	S23.7,97.8,50,97.8S97.8,76.4,97.8,50S76.3,2.3,50,2.3z"/>
<g>
	<path class="st0" d="M71.8,23.6L71.8,23.6l-43.5,0c-2.7,0.1-4.8,2.5-4.6,5.1v35.6c-0.1,2.7,2,5,4.7,5.1h13.6v1.1h-3.2
		c-2.1,0-3.8,1.7-3.8,3.8v0.9c0,0.6,0.5,1.2,1.2,1.2h27.9c0.6,0,1.2-0.5,1.2-1.2v-0.9c0-2.1-1.7-3.8-3.8-3.8h-3.2v-1.1l13.6,0
		c2.7-0.1,4.8-2.5,4.6-5.1V28.7C76.5,26.1,74.5,23.7,71.8,23.6z M44.2,70.6v-1.1h11.6v1.1H44.2z M38.7,73h22.6
		c0.7,0,1.3,0.5,1.4,1.1H37.3C37.4,73.4,38,73,38.7,73z M25.9,28.7c-0.1-1.4,0.9-2.6,2.3-2.8l43.5,0c1.4,0.1,2.4,1.4,2.3,2.8l0,31.5
		H25.9L25.9,28.7z M74.1,64.4c0.1,1.4-0.9,2.6-2.3,2.8l-43.5,0c-1.4-0.1-2.4-1.4-2.3-2.8v-1.8h48.1L74.1,64.4z"/>
	<path class="st0" d="M52.7,48.6h1.1c0.6,0,1.1-0.1,1.6-0.3c0.4-0.2,0.8-0.5,1-0.8c0.2-0.4,0.3-0.8,0.3-1.3l0-0.1h-1.2v0.1
		c0,0.5-0.1,0.8-0.4,1.1c-0.2,0.2-0.6,0.4-1.1,0.4h-0.2v-1.2l1.6-0.8v-0.7l-1.6,0.8v-0.2l1.6-0.8V44l-1.6,0.8v-0.9h-1.2v1.5
		l-0.7,0.3v0.7l0.7-0.3v0.2l-0.7,0.3v0.7l0.7-0.3V48.6z"/>
	<path class="st0" d="M47,46.3c0,3.8,3.1,6.9,6.9,6.9c3.8,0,6.9-3.1,6.9-6.9c0-3.8-3.1-6.9-6.9-6.9C50.1,39.4,47,42.5,47,46.3z
		 M48.6,46.3c0-2.9,2.4-5.3,5.3-5.3c2.9,0,5.3,2.4,5.3,5.3s-2.4,5.3-5.3,5.3C51,51.6,48.6,49.2,48.6,46.3z"/>
	<path class="st0" d="M54.8,33.8c0.5,0,0.9-0.4,0.9-0.9c0-0.5-0.4-0.9-0.9-0.9H44.3c-0.5,0-0.9,0.4-0.9,0.9c0,0.5,0.4,0.9,0.9,0.9
		H54.8z"/>
	<path class="st0" d="M44.3,30.3h10.4c0.5,0,0.9-0.4,0.9-0.9c0-0.5-0.4-0.9-0.9-0.9H44.3c-0.5,0-0.9,0.4-0.9,0.9
		C43.4,29.9,43.8,30.3,44.3,30.3z"/>
	<path class="st0" d="M42.6,46.9h-3.5c-0.5,0-0.9,0.4-0.9,0.9c0,0.5,0.4,0.9,0.9,0.9h3.5c0.5,0,0.9-0.4,0.9-0.9
		C43.5,47.3,43.1,46.9,42.6,46.9z"/>
	<path class="st0" d="M42.6,43.9h-3.5c-0.5,0-0.9,0.4-0.9,0.9c0,0.5,0.4,0.9,0.9,0.9h3.5c0.5,0,0.9-0.4,0.9-0.9
		C43.5,44.3,43.1,43.9,42.6,43.9z"/>
	<path class="st0" d="M60.9,55.8H45.2c-0.5,0-0.9,0.4-0.9,0.9c0,0.5,0.4,0.9,0.9,0.9h15.7c0.5,0,0.9-0.4,0.9-0.9
		C61.8,56.2,61.4,55.8,60.9,55.8z"/>
</g>
</svg>
