<?xml version="1.0" encoding="utf-8"?>
<!-- Generator: Adobe Illustrator 25.2.1, SVG Export Plug-In . SVG Version: 6.00 Build 0)  -->
<svg version="1.1" id="Layer_1" xmlns="http://www.w3.org/2000/svg" xmlns:xlink="http://www.w3.org/1999/xlink" x="0px" y="0px"
	 viewBox="0 0 100 100" style="enable-background:new 0 0 100 100;" xml:space="preserve">
<style type="text/css">
	.st0{fill:#F08418;}
</style>
<path class="st0" d="M50.2,100c-27.6,0-50-22.4-50-50s22.4-50,50-50s50,22.4,50,50S77.8,100,50.2,100z M50.2,2.2
	C23.9,2.2,2.5,23.7,2.5,50s21.4,47.8,47.8,47.8S98,76.3,98,50S76.6,2.2,50.2,2.2z"/>
<g>
	<path class="st0" d="M81.6,47.2L71,36.6c-0.8-0.8-1.8-1.2-2.9-1.2c-1.1,0-2.1,0.4-2.9,1.2l-15,15l-15-15c-0.8-0.8-1.8-1.2-2.9-1.2
		c-1.1,0-2.1,0.4-2.9,1.2L18.9,47.2c-0.8,0.8-1.2,1.8-1.2,2.9c0,1.1,0.4,2.1,1.2,2.9l22.4,22.4c0.8,0.8,1.8,1.2,2.9,1.2
		c1.1,0,2.1-0.4,2.9-1.2l3.2-3.2l3.2,3.2c0.8,0.8,1.8,1.2,2.9,1.2c1.1,0,2.1-0.4,2.9-1.2L81.6,53c0.8-0.8,1.2-1.8,1.2-2.9
		C82.7,49,82.3,48,81.6,47.2z M45.4,64.7l25.5-25.5l9.3,9.3c0.4,0.4,0.7,1,0.7,1.6c0,0.6-0.2,1.2-0.7,1.6L57.9,74
		c-0.4,0.4-1,0.6-1.6,0.6c-0.6,0-1.2-0.2-1.6-0.6L45.4,64.7z M47.4,72.4L45.8,74c-0.9,0.9-2.3,0.9-3.1,0l-1.3-1.3
		C42.5,72.1,44.7,71.3,47.4,72.4z M40,71.4L23.1,54.5c1.9-3.8,0.6-7-0.3-8.5l5.4-5.4c1.5,0.7,2.8,1,4,1c1.8,0,3.3-0.6,4.2-1.1
		l12.5,12.5L42.8,59c-0.8,0.8-1.2,1.8-1.2,2.9c0,1.1,0.4,2.1,1.2,2.9l6.1,6.1L48.8,71C44.7,69,41.4,70.5,40,71.4z M21.7,53.1
		l-1.4-1.4c-0.9-0.9-0.9-2.3,0-3.1l1.2-1.2C22,48.5,22.7,50.6,21.7,53.1z M29.6,39.2l1.2-1.2c0.4-0.4,1-0.6,1.6-0.6
		c0.6,0,1.2,0.2,1.6,0.6l1.1,1.1C33.8,39.6,31.9,40.1,29.6,39.2z M50.2,54.2l1.1-1.1l15.2-15.2c0.4-0.4,1-0.7,1.6-0.7
		c0.6,0,1.1,0.2,1.5,0.6L44.1,63.4c-0.4-0.4-0.6-0.9-0.6-1.5c0-0.6,0.2-1.2,0.7-1.6L50.2,54.2L50.2,54.2z"/>
	<path class="st0" d="M41.4,55.7l0.6-0.6l-2.7-0.8l1.1-1.1l-0.9-0.9l0,0l-1.6,1.6l-1.1-0.3l-0.6,0.6l1.1,0.3l-0.4,0.4l-1.1-0.3l0,0
		l-0.6,0.6l1.1,0.3l-1.7,1.7l0,0l1,1c0.9,0.9,1.9,1.4,2.8,1.5c0.1,0,0.1,0,0.2,0c0.8,0,1.6-0.4,2.4-1.1l0,0l-0.9-0.9l0,0l0,0
		c-0.5,0.5-1.1,0.8-1.7,0.8c0,0,0,0,0,0c-0.6,0-1.2-0.3-1.7-0.9l-0.3-0.3l1.4-1.4l2.6,0.8l0,0l0.6-0.6l-2.7-0.8l0.4-0.4L41.4,55.7z"
		/>
	<path class="st0" d="M64.5,57.4l-0.2-0.2c-0.3-0.3-0.8-0.3-1.1,0L53.1,67.3c-0.3,0.3-0.3,0.8,0,1.1l0.2,0.2
		c0.2,0.2,0.3,0.2,0.5,0.2s0.4-0.1,0.5-0.2l10.1-10.1C64.8,58.2,64.8,57.7,64.5,57.4z"/>
	<path class="st0" d="M50.5,29.5c-2.3,0-4.4,0.9-6,2.5l-1,1c-0.2,0.2-0.3,0.4-0.3,0.7c0,0.2,0.1,0.5,0.3,0.7
		c0.2,0.2,0.4,0.3,0.7,0.3c0.2,0,0.5-0.1,0.6-0.3l1-1c2.6-2.6,6.8-2.6,9.4,0l0.7,0.7c0.2,0.2,0.4,0.3,0.7,0.3c0.3,0,0.5-0.1,0.6-0.3
		c0.2-0.2,0.3-0.4,0.3-0.7c0-0.2-0.1-0.5-0.3-0.6l-0.9-0.9C54.7,30.3,52.6,29.5,50.5,29.5z"/>
	<path class="st0" d="M39.6,30.2c0.2,0,0.4-0.1,0.6-0.3l1.2-1.1c5-4.9,13-4.9,18.1-0.1l0.9,0.9c0.2,0.2,0.4,0.3,0.6,0.3c0,0,0,0,0,0
		c0.2,0,0.5-0.1,0.6-0.3c0.3-0.3,0.3-0.9,0-1.2l-1.1-1.1c0,0-0.1-0.1-0.1-0.1l-0.1-0.1c-2.7-2.4-6.2-3.7-9.8-3.7
		c-3.9,0-7.5,1.5-10.3,4.1L39,28.7v0c-0.2,0.2-0.3,0.4-0.3,0.6c0,0.2,0.1,0.5,0.3,0.6C39.1,30.1,39.4,30.2,39.6,30.2z"/>
	<path class="st0" d="M60.1,65.4c-0.3-0.3-0.8-0.3-1.1,0L55.5,69c-0.1,0.1-0.2,0.3-0.2,0.5c0,0.2,0.1,0.4,0.2,0.5l0.2,0.2
		c0.2,0.2,0.3,0.2,0.5,0.2c0.2,0,0.4-0.1,0.5-0.2l3.5-3.5c0.1-0.1,0.2-0.3,0.2-0.5c0-0.2-0.1-0.4-0.2-0.5L60.1,65.4z"/>
</g>
<circle class="st0" cx="50.7" cy="38.4" r="1.1"/>
</svg>
