<?xml version="1.0" encoding="utf-8"?>
<!-- Generator: Adobe Illustrator 25.2.1, SVG Export Plug-In . SVG Version: 6.00 Build 0)  -->
<svg version="1.1" id="Layer_1" xmlns="http://www.w3.org/2000/svg" xmlns:xlink="http://www.w3.org/1999/xlink" x="0px" y="0px"
	 viewBox="0 0 100 100" style="enable-background:new 0 0 100 100;" xml:space="preserve">
<style type="text/css">
	.st0{fill:#F08418;}
</style>
<path class="st0" d="M50,100C22.4,100,0,77.5,0,50S22.4,0,50,0s50,22.4,50,50S77.5,100,50,100z M50,2.2C23.7,2.2,2.2,23.7,2.2,50
	S23.7,97.7,50,97.7S97.7,76.3,97.7,50S76.3,2.2,50,2.2z"/>
<g>
	<path class="st0" d="M49.4,39.2c0.6,0,1.2-0.1,1.6-0.3c0.4-0.2,0.8-0.5,1-0.8c0.2-0.3,0.3-0.7,0.3-1.2h-1c0,0.5-0.2,0.9-0.4,1.1
		c-0.3,0.3-0.7,0.4-1.2,0.4h-0.3v-1.5L51,36v-0.4l-1.7,0.9v-0.6L51,35v-0.4l-1.7,0.9v-1.1h-1V36l-0.7,0.4v0.4l0.7-0.4V37l-0.7,0.4
		v0.4l0.7-0.4v1.8H49.4z"/>
	<path class="st0" d="M49.4,70.8c0.6,0,1.2-0.1,1.6-0.3c0.4-0.2,0.8-0.5,1-0.8c0.2-0.3,0.3-0.7,0.3-1.2h-1c0,0.5-0.2,0.9-0.4,1.1
		c-0.3,0.3-0.7,0.4-1.2,0.4h-0.3v-1.5l1.7-0.9v-0.4l-1.7,0.9v-0.6l1.7-0.9v-0.4l-1.7,0.9v-1.1h-1v1.6L47.7,68v0.4l0.7-0.4v0.6
		L47.7,69v0.4l0.7-0.4v1.8H49.4z"/>
	<path class="st0" d="M67.9,70.8c0.6,0,1.2-0.1,1.6-0.3c0.4-0.2,0.8-0.5,1-0.8c0.2-0.3,0.3-0.7,0.3-1.2h-1c0,0.5-0.2,0.9-0.4,1.1
		c-0.3,0.3-0.7,0.4-1.2,0.4h-0.3v-1.5l1.7-0.9v-0.4l-1.7,0.9v-0.6l1.7-0.9v-0.4l-1.7,0.9v-1.1h-0.9v1.6L66.1,68v0.4l0.7-0.4v0.6
		L66.1,69v0.4l0.7-0.4v1.8H67.9z"/>
	<path class="st0" d="M31,70.8c0.6,0,1.2-0.1,1.6-0.3c0.4-0.2,0.8-0.5,1-0.8c0.2-0.3,0.3-0.7,0.3-1.2h-1c0,0.5-0.2,0.9-0.4,1.1
		c-0.3,0.3-0.7,0.4-1.2,0.4h-0.3v-1.5l1.7-0.9v-0.4l-1.7,0.9v-0.6l1.7-0.9v-0.4l-1.7,0.9v-1.1h-0.9v1.6L29.2,68v0.4l0.7-0.4v0.6
		L29.2,69v0.4l0.7-0.4v1.8H31z"/>
	<path class="st0" d="M75.4,23.6H24.5c-0.5,0-0.9,0.4-0.9,0.9v24.6c0,0.5,0.4,0.9,0.9,0.9h50.9c0.5,0,0.9-0.4,0.9-0.9V24.5
		C76.4,24,76,23.6,75.4,23.6z M74.5,48.2H25.4V25.4h49.1V48.2z"/>
	<path class="st0" d="M50,60.5c-4.4,0-8,3.6-8,8c0,4.4,3.6,8,8,8s8-3.6,8-8C57.9,64,54.4,60.5,50,60.5z M50,74.5
		c-3.4,0-6.1-2.7-6.1-6.1c0-3.4,2.7-6.1,6.1-6.1s6.1,2.7,6.1,6.1C56.1,71.8,53.3,74.5,50,74.5z"/>
	<path class="st0" d="M31.5,60.5c-4.4,0-8,3.6-8,8c0,4.4,3.6,8,8,8s8-3.6,8-8C39.5,64,35.9,60.5,31.5,60.5z M31.5,74.5
		c-3.4,0-6.1-2.7-6.1-6.1c0-3.4,2.7-6.1,6.1-6.1s6.1,2.7,6.1,6.1C37.6,71.8,34.9,74.5,31.5,74.5z"/>
	<path class="st0" d="M50,28.9c-4.4,0-8,3.6-8,8c0,4.4,3.6,8,8,8c4.4,0,8-3.6,8-8C57.9,32.4,54.4,28.9,50,28.9z M50,42.9
		c-3.4,0-6.1-2.7-6.1-6.1c0-3.4,2.7-6.1,6.1-6.1c3.4,0,6.1,2.7,6.1,6.1C56.1,40.2,53.3,42.9,50,42.9z"/>
	<path class="st0" d="M68.4,60.5c-4.4,0-8,3.6-8,8c0,4.4,3.6,8,8,8s8-3.6,8-8C76.4,64,72.8,60.5,68.4,60.5z M68.4,74.5
		c-3.4,0-6.1-2.7-6.1-6.1c0-3.4,2.7-6.1,6.1-6.1s6.1,2.7,6.1,6.1C74.5,71.8,71.8,74.5,68.4,74.5z"/>
	<rect x="49" y="51.7" class="st0" width="1.9" height="7.1"/>
	<path class="st0" d="M45.6,55.3v-3.6h-1.9v2.6H31.5c-0.5,0-0.9,0.4-0.9,0.9v3.6h1.9v-2.6h12.2C45.2,56.2,45.6,55.8,45.6,55.3z"/>
	<path class="st0" d="M55.2,56.2h12.2v2.6h1.9v-3.6c0-0.5-0.4-0.9-0.9-0.9H56.2v-2.6h-1.9v3.6C54.3,55.8,54.7,56.2,55.2,56.2z"/>
</g>
</svg>
