<?xml version="1.0" encoding="utf-8"?>
<!-- Generator: Adobe Illustrator 25.2.1, SVG Export Plug-In . SVG Version: 6.00 Build 0)  -->
<svg version="1.1" id="Layer_1" xmlns="http://www.w3.org/2000/svg" xmlns:xlink="http://www.w3.org/1999/xlink" x="0px" y="0px"
	 viewBox="0 0 100 100" style="enable-background:new 0 0 100 100;" xml:space="preserve">
<style type="text/css">
	.st0{fill:#F08418;}
</style>
<path class="st0" d="M50,100C22.4,100,0,77.6,0,50S22.4,0,50,0s50,22.4,50,50S77.6,100,50,100z M50,2.2C23.7,2.2,2.2,23.7,2.2,50
	S23.7,97.8,50,97.8S97.8,76.3,97.8,50S76.3,2.2,50,2.2z"/>
<g>
	<path class="st0" d="M46.7,67.3h-1.5c-0.5,0-0.9,0.4-0.9,0.9c0,0.5,0.4,0.9,0.9,0.9h1.5c0.5,0,0.9-0.4,0.9-0.9
		C47.7,67.7,47.2,67.3,46.7,67.3z"/>
	<path class="st0" d="M33.5,47.9h11.1c0.5,0,0.9-0.4,0.9-0.9c0-0.5-0.4-0.9-0.9-0.9H44V31.5c0-2.2-1.8-4.1-4.1-4.1H32
		c-2.2,0-4.1,1.8-4.1,4.1v3.1c0,0.5,0.4,0.9,0.9,0.9h5.3V46h-0.7c-0.5,0-0.9,0.4-0.9,0.9C32.6,47.4,33,47.9,33.5,47.9z M39.9,29.3
		c1.2,0,2.2,1,2.2,2.2V46H36V31.5c0-0.7-0.2-1.5-0.6-2.1l-0.1-0.1H39.9z M29.8,33.7v-2.2c0-1.2,1-2.2,2.2-2.2s2.2,1,2.2,2.2v2.2
		H29.8z"/>
	<path class="st0" d="M41.2,53.1h-1.6c-0.5,0-0.9,0.4-0.9,0.9c0,0.5,0.4,0.9,0.9,0.9h1.6c0.5,0,0.9-0.4,0.9-0.9
		C42.2,53.5,41.7,53.1,41.2,53.1z"/>
	<path class="st0" d="M47.6,53.1H46c-0.5,0-0.9,0.4-0.9,0.9c0,0.5,0.4,0.9,0.9,0.9h1.6c0.5,0,0.9-0.4,0.9-0.9
		C48.5,53.5,48.1,53.1,47.6,53.1z"/>
	<path class="st0" d="M53.9,53.1h-1.6c-0.5,0-0.9,0.4-0.9,0.9c0,0.5,0.4,0.9,0.9,0.9h1.6c0.5,0,0.9-0.4,0.9-0.9
		C54.8,53.5,54.4,53.1,53.9,53.1z"/>
	<path class="st0" d="M41.2,56.5h-1.6c-0.5,0-0.9,0.4-0.9,0.9c0,0.5,0.4,0.9,0.9,0.9h1.6c0.5,0,0.9-0.4,0.9-0.9
		C42.2,56.9,41.7,56.5,41.2,56.5z"/>
	<path class="st0" d="M47.6,56.5H46c-0.5,0-0.9,0.4-0.9,0.9c0,0.5,0.4,0.9,0.9,0.9h1.6c0.5,0,0.9-0.4,0.9-0.9
		C48.5,56.9,48.1,56.5,47.6,56.5z"/>
	<path class="st0" d="M53.9,56.5h-1.6c-0.5,0-0.9,0.4-0.9,0.9c0,0.5,0.4,0.9,0.9,0.9h1.6c0.5,0,0.9-0.4,0.9-0.9
		C54.8,56.9,54.4,56.5,53.9,56.5z"/>
	<path class="st0" d="M76.4,60.5c0-2-0.7-3.9-1.9-5.4l0,0c-0.3-0.4-0.7-0.8-1.1-1.2c-0.5-0.4-1.1-0.8-1.7-1.1
		c-2.1-1.1-4.6-1.3-6.8-0.5l-0.1,0l-0.7-1.8V40.3c0-1.6-1.3-3-3-3h-2.9V33h3.9c1.1,0,2-0.9,2-2v-5.5c0-1.1-0.9-2-2-2H48.9
		c-1.1,0-2,0.9-2,2v5.5c0,1.1,0.9,2,2,2h3.9v4.3h-6.4c-0.5,0-0.9,0.4-0.9,0.9s0.4,0.9,0.9,0.9h14.7c0.6,0,1.1,0.5,1.1,1.1v9.5H29.8
		v-9.5c0-0.6,0.5-1.1,1.1-1.1H32c0.5,0,0.9-0.4,0.9-0.9s-0.4-0.9-0.9-0.9h-1.1c-1.6,0-3,1.3-3,3l0,10.2l-4.2,10.2c0,0,0,0.1,0,0.1
		l0,0.1c0,0,0,0,0,0.1v12.3c0,1.6,1.3,3,3,3h38.7c1.6,0,3-1.3,3-3v-4.2l0.1,0C72.9,68.8,76.4,65,76.4,60.5z M48.9,31.2
		C48.9,31.2,48.8,31.1,48.9,31.2l-0.1-5.7h0.1l13.3,0v0.1l0,5.6H48.9z M56.3,37.3h-1.7V33h1.7V37.3z M23.8,60.9L23.8,60.9L23.8,60.9
		L23.8,60.9z M26,60l3.5-8.4h33l0.6,1.5l0,0c-2.4,1.5-3.9,4.1-4.1,6.9l0,0.1L26,60L26,60z M60.6,65.6c0.6,0.8,1.4,1.6,2.2,2.1l0,0v0
		l0,3.1h-0.1l-33.7,0v-0.1l0-5.3L60.6,65.6L60.6,65.6z M66.5,73.4c0,0.6-0.5,1.1-1.1,1.1H26.6c-0.6,0-1.1-0.5-1.1-1.1V62h33.6l0,0.1
		c0.1,0.5,0.2,1.1,0.4,1.6l0,0.1H29.2c-1.1,0-2,0.9-2,2v5.2c0,1.1,0.9,2,2,2h33.6c1.1,0,2-0.9,2-2v-2.2l0.1,0c0.5,0.2,1,0.3,1.6,0.4
		l0.1,0V73.4z M67.7,67.3c-3.8,0-6.8-3.1-6.8-6.8c0-3.8,3.1-6.8,6.8-6.8c1.1,0,2.2,0.3,3.1,0.8c0.4,0.2,0.8,0.5,1.2,0.8
		c0.4,0.3,0.7,0.7,1,1c1,1.2,1.5,2.7,1.5,4.2C74.5,64.2,71.4,67.3,67.7,67.3z"/>
	<path class="st0" d="M67.1,62.6c0.6,0,1-0.1,1.4-0.3c0.4-0.2,0.7-0.4,0.9-0.7c0.2-0.3,0.3-0.7,0.3-1.1h-0.9c0,0.4-0.1,0.8-0.4,1
		c-0.2,0.3-0.6,0.4-1.1,0.4H67v-1.3l1.5-0.8v-0.4L67,60.2v-0.5l1.5-0.8v-0.4L67,59.3v-0.9h-0.9v1.4l-0.6,0.3v0.4l0.6-0.3v0.5
		L65.5,61v0.4l0.6-0.3v1.5H67.1z"/>
</g>
</svg>
