<?xml version="1.0" encoding="utf-8"?>
<!-- Generator: Adobe Illustrator 25.2.1, SVG Export Plug-In . SVG Version: 6.00 Build 0)  -->
<svg version="1.1" id="Layer_1" xmlns="http://www.w3.org/2000/svg" xmlns:xlink="http://www.w3.org/1999/xlink" x="0px" y="0px"
	 viewBox="0 0 100 100" style="enable-background:new 0 0 100 100;" xml:space="preserve">
<style type="text/css">
	.st0{fill:#F08418;}
	.st1{fill:#FFFFFF;}
</style>
<path class="st0" d="M50.1,100C22.5,100,0.1,77.6,0.1,50.1S22.5,0.1,50.1,0.1S100,22.5,100,50.1S77.6,100,50.1,100z"/>
<g>
	<path class="st1" d="M69,33.7L59.3,24c-0.2-0.2-0.4-0.3-0.7-0.3h-22c-1.5,0-2.7,1.2-2.7,2.7v5.3c-4.9,0.2-9.5,2.4-12.8,6
		c-3.3,3.7-5,8.4-4.8,13.3c0.2,4.6,2.1,9,5.4,12.2c3.3,3.3,7.6,5.2,12.2,5.4V74c0,1.5,1.2,2.7,2.7,2.7h30c1.5,0,2.7-1.2,2.7-2.7
		V34.4C69.2,34.1,69.1,33.9,69,33.7z M35.7,68.7c9.9-0.5,17.6-8.6,17.6-18.5c0-0.5-0.4-0.9-0.9-0.9H35.7V26.4c0-0.5,0.4-0.8,0.8-0.8
		h21.1v7c0,1.5,1.2,2.7,2.7,2.7h7V74c0,0.5-0.4,0.8-0.8,0.8h-30c-0.5,0-0.8-0.4-0.8-0.8V68.7z M46,62.6c-3.1,2.8-7,4.3-11.2,4.3
		c-0.3,0-0.6,0-0.9,0c-3.8-0.2-7.5-1.7-10.3-4.3l11.5-11.5h16.3C51.2,55.6,49.3,59.7,46,62.6z M59.5,32.6v-5.7l6.6,6.6h-5.7
		C59.9,33.4,59.5,33.1,59.5,32.6z M22.4,61.4c-2.8-3.1-4.3-7-4.3-11.1c0-8.9,6.9-16.2,15.8-16.7v16.3L22.4,61.4z"/>
	<path class="st1" d="M56.9,46.7c0-5-1.9-9.6-5.4-13.1c-3.5-3.5-8.2-5.4-13.1-5.4c-0.5,0-0.9,0.4-0.9,0.9v17.6
		c0,0.5,0.4,0.9,0.9,0.9H56C56.5,47.6,56.9,47.2,56.9,46.7z M55,45.8H39.2V30C47.8,30.5,54.5,37.3,55,45.8z"/>
	<path class="st1" d="M59.1,60.8h6.1c0.3,0,0.5-0.2,0.5-0.5v-0.8c0-0.3-0.2-0.5-0.5-0.5h-6.1c-0.3,0-0.5,0.2-0.5,0.5v0.8
		C58.6,60.6,58.8,60.8,59.1,60.8z"/>
	<path class="st1" d="M59.1,66.1h6.1c0.3,0,0.5-0.2,0.5-0.5v-0.8c0-0.3-0.2-0.5-0.5-0.5h-6.1c-0.3,0-0.5,0.2-0.5,0.5v0.8
		C58.6,65.9,58.8,66.1,59.1,66.1z"/>
	<path class="st1" d="M59.1,71.4h6.1c0.3,0,0.5-0.2,0.5-0.5v-0.8c0-0.3-0.2-0.5-0.5-0.5h-6.1c-0.3,0-0.5,0.2-0.5,0.5v0.8
		C58.6,71.2,58.8,71.4,59.1,71.4z"/>
</g>
</svg>
