<?xml version="1.0" encoding="utf-8"?>
<!-- Generator: Adobe Illustrator 25.2.1, SVG Export Plug-In . SVG Version: 6.00 Build 0)  -->
<svg version="1.1" id="Layer_1" xmlns="http://www.w3.org/2000/svg" xmlns:xlink="http://www.w3.org/1999/xlink" x="0px" y="0px"
	 viewBox="0 0 100 100" style="enable-background:new 0 0 100 100;" xml:space="preserve">
<style type="text/css">
	.st0{fill:#F08418;}
	.st1{fill:#FFFFFF;}
</style>
<path class="st0" d="M50,100C22.4,100,0,77.6,0,50S22.4,0,50,0s50,22.4,50,50S77.6,100,50,100z"/>
<g>
	<path class="st1" d="M71.8,49.7c0.5,0,0.9-0.4,0.9-0.9V34.6c0,0,0,0,0-0.1l0,0c0-0.1,0-0.2-0.1-0.3c0,0,0-0.1-0.1-0.1l-7.6-10.2
		c-0.2-0.2-0.4-0.4-0.7-0.4h-32c-0.3,0-0.6,0.2-0.8,0.4l-7.1,10.2c-0.1,0.2-0.2,0.3-0.2,0.5v41c0,0.5,0.4,0.9,0.9,0.9h23.3
		c0.5,0,0.9-0.4,0.9-0.9s-0.4-0.9-0.9-0.9H26.1V35.6h44.8v13.2C70.9,49.3,71.3,49.7,71.8,49.7z M26.9,33.7l0.1-0.1l5.7-8.3h31l0,0
		l6.2,8.4H26.9z"/>
	<path class="st1" d="M62.1,52.4c-5.1,0-9.3,4.2-9.3,9.3c0,5.1,4.2,9.3,9.3,9.3c2,0,3.9-0.6,5.5-1.8l0.4-0.3l6.1,6.9
		c0.2,0.2,0.4,0.3,0.7,0.3c0.2,0,0.5-0.1,0.6-0.2c0.4-0.4,0.4-0.9,0.1-1.3l-6.2-7l0.2-0.3c1.2-1.6,1.8-3.5,1.8-5.6
		C71.4,56.6,67.3,52.4,62.1,52.4z M67.5,66.8L67.5,66.8c-0.1,0.1-0.1,0.1-0.2,0.2l0,0c-1.4,1.4-3.3,2.1-5.2,2.1
		c-4.1,0-7.4-3.3-7.4-7.4s3.3-7.4,7.4-7.4s7.4,3.3,7.4,7.4C69.6,63.6,68.9,65.4,67.5,66.8z"/>
	<path class="st1" d="M48.6,61.6H30.8c-0.5,0-0.9,0.4-0.9,0.9s0.4,0.9,0.9,0.9h17.8c0.5,0,0.9-0.4,0.9-0.9S49.1,61.6,48.6,61.6z"/>
	<path class="st1" d="M48.1,42.5L37.4,53.3l-0.1-0.1l-6-6c-0.2-0.2-0.4-0.3-0.7-0.3c-0.2,0-0.5,0.1-0.7,0.3c-0.4,0.4-0.4,0.9,0,1.3
		l6.7,6.7c0.2,0.2,0.4,0.3,0.6,0.3h0c0.3,0,0.5-0.1,0.7-0.3l11.4-11.4c0.4-0.4,0.4-0.9,0-1.3C49,42.2,48.5,42.2,48.1,42.5z"/>
</g>
</svg>
