<?xml version="1.0" encoding="utf-8"?>
<!-- Generator: Adobe Illustrator 25.2.1, SVG Export Plug-In . SVG Version: 6.00 Build 0)  -->
<svg version="1.1" id="Layer_1" xmlns="http://www.w3.org/2000/svg" xmlns:xlink="http://www.w3.org/1999/xlink" x="0px" y="0px"
	 viewBox="0 0 100 100" style="enable-background:new 0 0 100 100;" xml:space="preserve">
<style type="text/css">
	.st0{fill:#F08418;}
	.st1{fill:#FFFFFF;}
</style>
<path class="st0" d="M50,100C22.4,100,0,77.6,0,50S22.4,0,50,0s50,22.4,50,50S77.6,100,50,100z"/>
<path class="st1" d="M55.9,48c0.2,0,0.4,0,0.5,0.1v-2.9c0-0.3-0.3-0.6-0.6-0.6h-7.3c-0.3,0-0.6,0.3-0.6,0.6v7.3
	c0,0.3,0.3,0.6,0.6,0.6h2.9c0.1-0.6,0.5-1.1,1-1.3c0-0.2-0.1-0.3-0.1-0.5h-1.9c-0.4,0-0.7-0.3-0.7-0.7v-3.4c0-0.4,0.3-0.7,0.7-0.7
	h3.4c0.4,0,0.7,0.3,0.7,0.7v1.4C54.8,48.3,55.2,48,55.9,48z"/>
<path class="st1" d="M63.6,52.7c-0.6,0-1,0.5-1,1V61c0,0.6,0.5,1,1,1h7.3c0.6,0,1-0.5,1-1s-0.5-1-1-1h-5.1c-0.6,0-1.1-0.5-1.1-1.1
	v-5.1C64.6,53.1,64.1,52.7,63.6,52.7z"/>
<path class="st1" d="M63.6,45.4C55,45.4,48,52.4,48,61s7,15.6,15.6,15.6s15.6-7,15.6-15.6S72.2,45.4,63.6,45.4z M63.6,74.5
	C56.2,74.5,50,68.3,50,61s6.2-13.6,13.6-13.6S77.1,53.6,77.1,61S70.9,74.5,63.6,74.5z"/>
<path class="st1" d="M38.4,44.6h-7.3c-0.3,0-0.6,0.3-0.6,0.6v7.3c0,0.3,0.3,0.6,0.6,0.6h7.3c0.3,0,0.6-0.3,0.6-0.6v-7.3
	C39,44.8,38.7,44.6,38.4,44.6z M37.1,50.5c0,0.4-0.3,0.7-0.7,0.7h-3.4c-0.4,0-0.7-0.3-0.7-0.7v-3.4c0-0.4,0.3-0.7,0.7-0.7h3.4
	c0.4,0,0.7,0.3,0.7,0.7V50.5z"/>
<path class="st1" d="M38.4,56.8h-7.3c-0.3,0-0.6,0.3-0.6,0.6v7.3c0,0.3,0.3,0.6,0.6,0.6h7.3c0.3,0,0.6-0.3,0.6-0.6v-7.3
	C39,57,38.7,56.8,38.4,56.8z M37.1,62.7c0,0.4-0.3,0.7-0.7,0.7h-3.4c-0.4,0-0.7-0.3-0.7-0.7v-3.4c0-0.4,0.3-0.7,0.7-0.7h3.4
	c0.4,0,0.7,0.3,0.7,0.7V62.7z"/>
<path class="st1" d="M71.8,39.1V24.5c0-0.5-0.4-0.9-0.9-0.9h-51c-0.5,0-0.9,0.4-0.9,0.9v43.7c0,0.5,0.4,0.9,0.9,0.9h21.9
	c0.5,0,0.9-0.4,0.9-0.9s-0.4-0.9-0.9-0.9H21.8c-0.6,0-1-0.5-1-1V41.1c0-0.6,0.5-1,1-1h49.1C71.4,40,71.8,39.6,71.8,39.1z M69.9,37.2
	c0,0.6-0.5,1-1,1H21.8c-0.6,0-1-0.5-1-1V26.5c0-0.6,0.5-1,1-1h47.1c0.6,0,1,0.5,1,1V37.2z"/>
</svg>
