<?xml version="1.0" encoding="utf-8"?>
<!-- Generator: Adobe Illustrator 25.2.1, SVG Export Plug-In . SVG Version: 6.00 Build 0)  -->
<svg version="1.1" id="Layer_1" xmlns="http://www.w3.org/2000/svg" xmlns:xlink="http://www.w3.org/1999/xlink" x="0px" y="0px"
	 viewBox="0 0 100 100" style="enable-background:new 0 0 100 100;" xml:space="preserve">
<style type="text/css">
	.st0{fill:#F08418;}
</style>
<path class="st0" d="M50,100C22.4,100,0,77.6,0,50S22.4,0,50,0s50,22.4,50,50S77.6,100,50,100z M50,2.2C23.7,2.2,2.2,23.7,2.2,50
	S23.7,97.8,50,97.8S97.8,76.3,97.8,50S76.3,2.2,50,2.2z"/>
<g>
	<path class="st0" d="M70.3,37.6c-6.5,0-11.9,5.1-12.3,11.5H36.3c-0.4-3.3-3.2-5.8-6.6-5.8c-3.7,0-6.7,3-6.7,6.7
		c0,3.7,3,6.7,6.7,6.7c3.4,0,6.2-2.5,6.6-5.8H58c0.5,6.4,5.8,11.5,12.3,11.5c6.8,0,12.4-5.6,12.4-12.4
		C82.7,43.2,77.2,37.6,70.3,37.6z M70.3,60.6c-5.8,0-10.6-4.7-10.6-10.6s4.7-10.6,10.6-10.6c5.8,0,10.6,4.7,10.6,10.6
		S76.2,60.6,70.3,60.6z"/>
	<path class="st0" d="M19.1,50c0-5.8,4.7-10.6,10.6-10.6h0.2v-1.8h-0.2c-6.8,0-12.4,5.6-12.4,12.4c0,6.8,5.6,12.4,12.4,12.4h0.2
		v-1.8h-0.2C23.8,60.6,19.1,55.8,19.1,50z"/>
</g>
</svg>
