<?xml version="1.0" encoding="utf-8"?>
<!-- Generator: Adobe Illustrator 25.2.1, SVG Export Plug-In . SVG Version: 6.00 Build 0)  -->
<svg version="1.1" id="Layer_1" xmlns="http://www.w3.org/2000/svg" xmlns:xlink="http://www.w3.org/1999/xlink" x="0px" y="0px"
	 viewBox="0 0 100 100" style="enable-background:new 0 0 100 100;" xml:space="preserve">
<style type="text/css">
	.st0{fill:#F08418;}
</style>
<path class="st0" d="M50,100C22.4,100,0,77.6,0,50S22.4,0,50,0s50,22.4,50,50S77.6,100,50,100z M50,2.2C23.7,2.2,2.2,23.7,2.2,50
	S23.7,97.8,50,97.8S97.8,76.3,97.8,50S76.3,2.2,50,2.2z"/>
<g>
	<path class="st0" d="M57.2,33.3c-6.5,0-12.9,0-19.4,0c-1,0-1.2,0.3-1.2,1.3c0,1.9,0,3.7,0,5.6l0,0.4c0,0.9,0.3,1.2,1.2,1.2l9.6,0
		c1.9,0,3.8,0,5.7,0c1.4,0,2.8,0,4.2,0c0.7,0,1.1-0.3,1.1-1.1c0-2.1,0-4.2,0-6.3C58.3,33.7,57.9,33.3,57.2,33.3z M56.4,39.9h-18
		v-4.7h18V39.9z"/>
	<path class="st0" d="M67.6,26.5c0-1.1-0.4-2-1.3-2.6c-0.2-0.1-0.5-0.3-0.7-0.4c-0.1,0-0.2-0.1-0.3-0.1l-22.5,0l0,0c0,0,0,0-0.1,0
		c0,0-0.1,0-0.1,0.1c-1.4,0.5-2.2,1.5-2.2,2.9c0,0.4,0,0.8,0,1.2c0,0.2,0,0.4,0,0.6v1.7l-2.5,0c-1.5,0-2.9,0-4.4,0
		c-0.8,0-1.1,0.3-1.1,1.1c0,4.6,0,9.2,0,13.9c0,0.8,0.3,1.1,1.1,1.1c0.4,0,0.9,0,1.3,0l0.5,0v6.2c0,3.6,0,7.2,0,10.8
		c0,0.9,0.3,1.2,1.1,1.2c0.4,0,0.7,0,1.1,0l0.4,0v3.5c0,2.6,0,5.1,0,7.7c0,0.9,0.3,1.2,1.2,1.2l16.1,0c1.1,0,1.4-0.2,1.4-1.4v-11
		l0.5,0c0.4,0,0.7,0,1.1,0c0.8,0,1.1-0.3,1.1-1.1c0-0.6,0-1.2,0-1.7c0-0.6,0-1.2,0-1.8c0-0.1,0-0.4,0.1-0.5c0.2-0.3,0.5-0.6,0.7-0.8
		c0.1-0.1,0.2-0.2,0.3-0.3c0.1,0.1,0.3,0.3,0.4,0.4c0.3,0.3,0.6,0.6,0.9,0.9c0.5,0.5,1,0.5,1.6,0c0.3-0.3,0.6-0.6,0.9-0.9
		c0.1-0.1,0.2-0.2,0.3-0.4l0.4,0.4c0.3,0.3,0.7,0.7,1,1c0.3,0.3,0.7,0.4,1.1,0.2c0.4-0.2,0.6-0.5,0.6-0.9c0-0.1,0-0.2,0-0.3l0-0.2
		l0-26.1C67.6,30.2,67.6,28.4,67.6,26.5z M42.2,26.3c0-0.6,0.5-1.1,1.3-1.1c1.1,0,2.1,0,3.2,0l6,0v4.6H42.2c0-0.3,0-0.7,0-1
		C42.2,28,42.2,27.2,42.2,26.3z M43.8,74.7H40V64.2h3.8V74.7z M49.2,74.7h-3.5v-2.1c1.2,0.6,2.3,0.6,3.5,0V74.7z M48.7,70.7
		c-0.3,0.3-0.8,0.5-1.2,0.5c0,0,0,0,0,0c-0.4,0-0.9-0.2-1.2-0.5c-0.3-0.3-0.5-0.8-0.5-1.2c0-0.9,0.8-1.8,1.7-1.8c0,0,0,0,0,0
		c0.9,0,1.7,0.8,1.7,1.7C49.2,69.9,49,70.3,48.7,70.7z M45.7,66.3v-2.1h3.5v2.1C48,65.7,46.9,65.7,45.7,66.3z M54.9,74.7h-3.8V64.2
		h3.8V74.7z M58.8,44.1c-0.9,0-1.2,0.3-1.2,1.2c0,5.5,0,11,0,16.6v0.5H37.2c0,0,0-0.1,0-0.1c0-0.2,0-0.3,0-0.5c0-5.4,0-10.8,0-16.3
		c0-0.5,0-0.8-0.3-1.1c-0.2-0.2-0.6-0.3-1.1-0.3c-0.5,0-1,0-1.6,0c0,0,0,0,0,0V31.8h26.2v12.3l-0.5,0C59.6,44.1,59.2,44.1,58.8,44.1
		z M65.7,56.4c-0.1-0.1-0.2-0.1-0.2-0.2c-0.7-0.7-1.1-0.6-1.7,0c-0.3,0.3-0.5,0.6-0.8,0.9c-0.1,0.1-0.2,0.2-0.3,0.3
		c-0.1-0.1-0.3-0.3-0.4-0.4c-0.3-0.3-0.5-0.6-0.8-0.8c-0.3-0.3-0.6-0.5-0.9-0.5s-0.5,0.2-0.9,0.5c0,0,0,0-0.1,0.1
		c0,0-0.1,0.1-0.1,0.1V46l0.5,0c0.4,0,0.9,0,1.3,0c0.8,0,1.1-0.3,1.1-1.1c0-4.6,0-9.2,0-13.9c0-0.7-0.4-1.1-1.1-1.1
		c-1.5,0-2.9,0-4.4,0l-2.4,0c0-0.4,0-0.7,0-1.1c0-0.9,0-1.8,0-2.6c0-0.6,0.5-1,1.1-1c3.2,0,6.1,0,8.9,0c0.8,0,1.2,0.5,1.2,1.3
		c0,6.8,0,13.5,0,20.3L65.7,56.4L65.7,56.4z"/>
	<path class="st0" d="M53.2,44.1C53.2,44.1,53.2,44.1,53.2,44.1c-1.5,0-2.6,1.1-2.6,2.6c0,0.7,0.3,1.4,0.7,1.9
		c0.5,0.5,1.1,0.7,1.8,0.7c0,0,0,0,0,0c1.4,0,2.6-1.1,2.6-2.6c0-0.7-0.3-1.3-0.7-1.8C54.6,44.4,53.9,44.1,53.2,44.1z M53.2,47.4
		c-0.2,0-0.4-0.1-0.5-0.2c-0.1-0.1-0.2-0.3-0.2-0.5c0-0.4,0.3-0.7,0.7-0.7c0,0,0,0,0,0c0.2,0,0.3,0.1,0.5,0.2
		c0.1,0.1,0.2,0.3,0.2,0.5C53.9,47.1,53.6,47.4,53.2,47.4z"/>
	<path class="st0" d="M47.4,49.9C47.4,49.9,47.4,49.9,47.4,49.9c-0.7,0-1.3,0.3-1.8,0.7c-0.5,0.5-0.7,1.1-0.7,1.8
		c0,1.5,1.1,2.6,2.6,2.6c0,0,0,0,0,0c0.7,0,1.3-0.3,1.8-0.8c0.5-0.5,0.8-1.1,0.7-1.8C50,51,48.8,49.9,47.4,49.9z M47.4,53.2
		C47.4,53.2,47.4,53.2,47.4,53.2c-0.2,0-0.4-0.1-0.5-0.2c-0.1-0.1-0.2-0.3-0.2-0.5c0-0.4,0.3-0.7,0.7-0.7c0,0,0,0,0,0
		c0.2,0,0.4,0.1,0.5,0.2c0.1,0.1,0.2,0.3,0.2,0.5C48.1,52.9,47.8,53.2,47.4,53.2z"/>
	<path class="st0" d="M41.6,55.7C41.6,55.7,41.6,55.7,41.6,55.7c-0.7,0-1.3,0.3-1.8,0.7c-0.5,0.5-0.7,1.1-0.7,1.8
		c0,1.5,1.1,2.6,2.6,2.6c0,0,0,0,0,0c0.7,0,1.3-0.3,1.8-0.8c0.5-0.5,0.8-1.1,0.8-1.8C44.2,56.8,43,55.7,41.6,55.7z M42.3,58.3
		c0,0.4-0.3,0.7-0.7,0.7c0,0,0,0,0,0c-0.2,0-0.4-0.1-0.5-0.2c-0.1-0.1-0.2-0.3-0.2-0.5c0-0.4,0.3-0.7,0.7-0.7c0,0,0,0,0,0
		c0.2,0,0.4,0.1,0.5,0.2C42.2,57.9,42.3,58.1,42.3,58.3L42.3,58.3z"/>
	<path class="st0" d="M41.6,44.1C41.6,44.1,41.6,44.1,41.6,44.1c-1.5,0-2.6,1.1-2.6,2.6c0,0.7,0.3,1.4,0.7,1.9
		c0.5,0.5,1.1,0.7,1.8,0.8c0,0,0,0,0,0c1.4,0,2.6-1.1,2.6-2.6c0-0.7-0.3-1.3-0.7-1.8C43,44.4,42.3,44.1,41.6,44.1z M42.1,47.2
		c-0.1,0.1-0.3,0.2-0.5,0.2h0c0,0,0,0,0,0c-0.2,0-0.4-0.1-0.5-0.2c-0.1-0.1-0.2-0.3-0.2-0.5c0-0.2,0.1-0.4,0.2-0.5
		c0.1-0.1,0.3-0.2,0.5-0.2c0,0,0,0,0,0c0.4,0,0.7,0.3,0.7,0.7C42.3,46.8,42.2,47,42.1,47.2z"/>
	<path class="st0" d="M47.4,44.1C47.4,44.1,47.4,44.1,47.4,44.1c-0.7,0-1.3,0.3-1.8,0.8c-0.5,0.5-0.7,1.1-0.7,1.8
		c0,1.4,1.2,2.6,2.6,2.6c0,0,0,0,0,0c0.7,0,1.3-0.3,1.8-0.8c0.5-0.5,0.8-1.1,0.8-1.8C50,45.3,48.8,44.1,47.4,44.1z M47.9,47.2
		c-0.1,0.1-0.3,0.2-0.5,0.2c0,0,0,0,0,0c-0.2,0-0.4-0.1-0.5-0.2c-0.1-0.1-0.2-0.3-0.2-0.5c0-0.2,0.1-0.4,0.2-0.5
		c0.1-0.1,0.3-0.2,0.5-0.2c0,0,0,0,0,0c0.4,0,0.7,0.4,0.7,0.7C48.1,46.9,48,47.1,47.9,47.2z"/>
	<path class="st0" d="M41.6,49.9C41.6,49.9,41.6,49.9,41.6,49.9c-0.7,0-1.3,0.3-1.8,0.7c-0.5,0.5-0.7,1.1-0.7,1.8
		c0,1.4,1.1,2.6,2.6,2.6c0,0,0,0,0,0c0.7,0,1.3-0.3,1.8-0.8c0.5-0.5,0.8-1.1,0.8-1.8C44.2,51.1,43,49.9,41.6,49.9z M42.1,53
		c-0.1,0.1-0.3,0.2-0.5,0.2c0,0,0,0,0,0c-0.2,0-0.4-0.1-0.5-0.2c-0.1-0.1-0.2-0.3-0.2-0.5c0-0.2,0.1-0.4,0.2-0.5
		c0.1-0.1,0.3-0.2,0.5-0.2c0,0,0,0,0,0c0.4,0,0.7,0.4,0.7,0.7C42.3,52.7,42.2,52.8,42.1,53z"/>
	<path class="st0" d="M53.2,49.9L53.2,49.9c-1.4,0-2.6,1.1-2.6,2.6c0,0.7,0.3,1.3,0.7,1.8c0.5,0.5,1.2,0.8,1.9,0.8c0,0,0,0,0,0
		c0.7,0,1.3-0.3,1.8-0.8c0.5-0.5,0.8-1.1,0.8-1.8C55.8,51,54.6,49.9,53.2,49.9z M53.2,53.2C53.2,53.2,53.2,53.2,53.2,53.2
		c-0.2,0-0.4-0.1-0.5-0.2c-0.1-0.1-0.2-0.3-0.2-0.5c0-0.2,0.1-0.4,0.2-0.5c0.1-0.1,0.3-0.2,0.5-0.2c0.2,0,0.4,0.1,0.5,0.2
		c0.1,0.1,0.2,0.3,0.2,0.5C53.9,52.9,53.6,53.2,53.2,53.2z"/>
	<path class="st0" d="M47.4,55.7C47.4,55.7,47.4,55.7,47.4,55.7c-1.4,0-2.6,1.1-2.6,2.6v0c0,0.7,0.3,1.4,0.7,1.8
		c0.5,0.5,1.2,0.8,1.9,0.8c0,0,0,0,0,0c0.7,0,1.3-0.3,1.8-0.8c0.5-0.5,0.8-1.1,0.8-1.8C50,56.8,48.8,55.7,47.4,55.7z M47.9,58.8
		c-0.1,0.1-0.3,0.2-0.5,0.2c-0.2,0-0.4-0.1-0.5-0.2c-0.1-0.1-0.2-0.3-0.2-0.5c0-0.4,0.4-0.7,0.7-0.7c0,0,0,0,0,0
		c0.2,0,0.4,0.1,0.5,0.2c0.1,0.1,0.2,0.3,0.2,0.5C48.1,58.5,48,58.7,47.9,58.8z"/>
	<path class="st0" d="M53.2,55.7C53.2,55.7,53.2,55.7,53.2,55.7c-0.7,0-1.3,0.3-1.8,0.8c-0.5,0.5-0.7,1.1-0.7,1.8
		c0,1.4,1.1,2.6,2.6,2.6c0,0,0,0,0,0c0.7,0,1.3-0.3,1.8-0.8c0.5-0.5,0.8-1.1,0.8-1.8C55.8,56.9,54.6,55.7,53.2,55.7z M53.9,58.3
		c0,0.2-0.1,0.4-0.2,0.5c-0.1,0.1-0.3,0.2-0.5,0.2c0,0,0,0,0,0c-0.4,0-0.7-0.3-0.7-0.7c0-0.2,0.1-0.4,0.2-0.5
		c0.1-0.1,0.3-0.2,0.5-0.3c0,0,0,0,0,0c0.2,0,0.3,0.1,0.5,0.2C53.8,57.9,53.9,58.1,53.9,58.3L53.9,58.3z"/>
</g>
</svg>
