<svg xmlns="http://www.w3.org/2000/svg" xmlns:xlink="http://www.w3.org/1999/xlink" viewBox="0 0 890.78 210.22"><defs><style>.cls-1{fill:none;}.cls-2{fill:#074b89;}.cls-3{clip-path:url(#clip-path);}.cls-4{fill:#004b89;}.cls-5{fill:#f08223;}</style><clipPath id="clip-path" transform="translate(0)"><rect class="cls-1" y="141.02" width="498.73" height="69.2"/></clipPath></defs><g id="Layer_2" data-name="Layer 2"><g id="Layer_1-2" data-name="Layer 1"><path class="cls-2" d="M85,108.49H75.87L87.78,60.2l1.06-.79H21.63l.66.79L10.38,108.49H1.25L27.71,1.32h9.13L24.93,49.62l-1.05.79H91.09l-.66-.79,11.9-48.3h9.13Z" transform="translate(0)"/><path class="cls-2" d="M131.71,108.49h-9.13L149,1.32h9.13Z" transform="translate(0)"/><path class="cls-2" d="M249.6,108.49H165.18l1.72-7L252,18.39l9.79-7.94.13-.26H190.72L193,1.32H275.4l-1.85,7.54L189.93,90.37l-11.12,9-.13.27h73Z" transform="translate(0)"/><path class="cls-2" d="M351,108.49H282.41L308.87,1.32H318L293.92,98.7l-1.06.93h60.21Z" transform="translate(0)"/><path class="cls-2" d="M387.73,108.49H378.6L405.06,1.32h9.13Z" transform="translate(0)"/><path class="cls-2" d="M462.88,109.82c-16.14,0-31.62-5.3-39.29-16.28l9.26-7.27C441.45,96.59,451,101,464.47,101c19.85,0,33.61-7.94,36.65-20,2.12-8.73-3.31-16-16.94-20.11-2.11-.66-15.87-4.76-18.12-5.42-18-5.69-27.92-12.44-24.21-27.26C445.29,14.16,460.37,0,488.68,0c15.88,0,28.05,5.69,34.54,15.08l-8.87,7c-5-7.94-14.16-13.24-27.78-13.24-20.11,0-32.42,8.21-35.07,18.79C449,37.71,457.72,42.21,473.6,47.1c2.12.66,13.63,4.24,15.88,4.9,19.18,5.69,24.21,16.4,21.3,28.18C507.34,94.34,493.18,109.82,462.88,109.82Z" transform="translate(0)"/><path class="cls-2" d="M626.82,108.49H616.76l-5.29-27.12.66-.93H554.05l.13.93-18.53,27.12h-10l73-107.17h8.21ZM610.41,71.58l-.79-.93-9.13-48.29-.4-10.06h-.27l-5.55,10.06L561.32,70.79l-1.19.79Z" transform="translate(0)"/><path class="cls-2" d="M742.06,10.19h-38.5l.26.92-24,97.38h-9.12l23.94-97.38.93-.92H657l2.12-8.87h85.21Z" transform="translate(0)"/><path class="cls-2" d="M755.29,108.49h-9.13L772.63,1.32h9.12Z" transform="translate(0)"/><path class="cls-2" d="M833.22,109.82l1.06,1.45c2.91,3.84,2.25,7.94-2.25,11.51L818.14,134l-4-5.56,9.79-7.94c5.43-4.49,6.62-5.69,4.63-8.6L827,109.68c-15-.66-28.71-6-35.85-16.14l9.26-7.27C809,96.59,818.54,101,832,101c19.85,0,33.61-7.94,36.65-20,2.12-8.73-3.31-16-16.93-20.11-2.12-.66-15.88-4.76-18.13-5.42-18-5.69-27.92-12.44-24.21-27.26C812.85,14.16,827.93,0,856.24,0c15.88,0,28,5.69,34.54,15.08l-8.87,7c-5-7.94-14.15-13.24-27.78-13.24-20.11,0-32.42,8.21-35.06,18.79-2.52,10.06,6.21,14.56,22.09,19.45,2.12.66,13.63,4.24,15.88,4.9,19.18,5.69,24.21,16.4,21.3,28.18C875,93.94,861.67,108.89,833.22,109.82Z" transform="translate(0)"/><g class="cls-3"><path class="cls-4" d="M228.63,141.05c10.38,0,20.76,0,31.14,0,1.47,0,1.76.38,1.75,1.78,0,4.32.08,8.64.25,13,.06,1.46-.32,1.88-1.83,1.88-19.63-.06-39.25,0-58.88,0-3.22,0-5.34,1.75-5.49,4.51a4.78,4.78,0,0,0,5,5.19c3.94.08,7.89,0,11.84.08,9.4.08,18.8.15,28.21.28,10.73.14,19.94,9.15,20.52,20A21.15,21.15,0,0,1,243,209.86a33.37,33.37,0,0,1-4.36.28c-19.68,0-39.36,0-59,.05-1.54,0-1.86-.45-1.83-1.88.09-4.05.1-8.11,0-12.16,0-1.46.31-1.89,1.83-1.88,19.41.06,38.82,0,58.23.06,2.46,0,4.33-.77,5.45-3a5.28,5.28,0,0,0-4.78-7.76H199.44a21.32,21.32,0,0,1-3.88-42.28,18.47,18.47,0,0,1,3.56-.22h29.51" transform="translate(0)"/><path class="cls-4" d="M354.94,184.65c0-7.08.12-14.16,0-21.24a20,20,0,0,1,4.7-13.3,22.85,22.85,0,0,1,18.56-9.05c13.89,0,27.79,0,41.68,0,1.34,0,1.72.31,1.69,1.67-.1,4.27-.09,8.54,0,12.81,0,1.34-.32,1.71-1.69,1.7-13.62-.05-27.24,0-40.86,0a18.52,18.52,0,0,0-2.11.07,4.48,4.48,0,0,0-4.21,4.69,32.1,32.1,0,0,1,0,3.4c-.18,1.58.25,2.09,2,2.08,14.33-.09,28.66,0,43-.08,1.41,0,2,.25,1.91,1.83-.13,4.26-.1,8.54,0,12.81,0,1.33-.32,1.72-1.68,1.71-14.44,0-28.87,0-43.3-.06-1.47,0-1.89.33-1.87,1.85.08,7.67,0,15.35.07,23,0,1.38-.38,1.69-1.7,1.66-4.87-.08-9.74-.07-14.6,0-1.23,0-1.53-.31-1.52-1.52.06-8,0-16,0-24Z" transform="translate(0)"/><path class="cls-4" d="M462.66,141.15c11.46,0,22.92,0,34.38,0,1.34,0,1.72.33,1.69,1.68-.09,4.27-.08,8.54,0,12.81,0,1.26-.29,1.62-1.59,1.61-8.16-.06-16.32,0-24.48-.06-1.28,0-1.6.34-1.6,1.61q.06,24.65,0,49.29c0,2.1,0,2.1-2.18,2.1-4.27,0-8.54-.08-12.81,0-1.56.05-1.81-.49-1.81-1.89.05-16.43,0-32.86.07-49.29,0-1.46-.34-1.88-1.84-1.86-8.16.08-16.33,0-24.49.06-1.29,0-1.63-.34-1.61-1.62q.12-6.48,0-13c0-1.26.39-1.5,1.57-1.5,11.56,0,23.13,0,34.69,0" transform="translate(0)"/><path class="cls-5" d="M105.45,167c0-7.89,0-15.78,0-23.67,0-1.61.47-2,2-1.92,4.22.11,8.44.1,12.65,0,1.46,0,1.91.34,1.9,1.87-.06,15,0,30.05,0,45.07,0,4.08,1.85,5.94,5.93,5.94,14.16,0,28.32,0,42.48,0,1.53,0,1.86.41,1.82,1.87-.11,4.22-.07,8.43,0,12.65,0,1-.24,1.39-1.34,1.38-14.86,0-29.72.16-44.58-.08-12.13-.19-18.7-8.79-20.69-18.44a7.94,7.94,0,0,1-.05-1.62q0-11.5,0-23" transform="translate(0)"/><path class="cls-5" d="M100,176c0,10.86,0,21.72,0,32.59,0,1.2-.21,1.68-1.57,1.65-4.43-.1-8.87-.12-13.29,0-1.62,0-1.81-.57-1.8-1.93q.06-24.4,0-48.8c0-5.46,0-10.92,0-16.38,0-1.42.47-1.68,1.75-1.66,4.43.07,8.87.08,13.3,0,1.28,0,1.63.31,1.63,1.61-.06,11,0,21.94,0,32.91" transform="translate(0)"/><path class="cls-5" d="M18.21,157.17c-1,0-1.42.25-1.39,1.34.07,2.64.1,5.3,0,7.94-.06,1.34.42,1.59,1.65,1.58,12,0,24.08,0,36.12,0,3.49,0,5.74-2.11,5.75-5.37s-2.18-5.43-5.67-5.44h-18c-6.16,0-12.32,0-18.47,0m0,26.37c-1,0-1.41.23-1.38,1.33.07,2.76.05,5.52,0,8.27,0,.94.16,1.34,1.23,1.34,12.49,0,25,0,37.47,0,3.49,0,5.76-2.26,5.76-5.47s-2.33-5.41-5.94-5.41H37.18c-6.33,0-12.66,0-19,0m53.52-8c10.24,8.27,7.81,28.59-9.07,33.61a23.77,23.77,0,0,1-6.87,1q-27,0-54,0c-1.43,0-1.76-.35-1.76-1.77q.08-32.61,0-65.21c0-1.42.33-1.79,1.77-1.79,18.06.06,36.12,0,54.18,0,10,0,18.62,6.59,20.45,15.89a23.73,23.73,0,0,1-.77,13.11c-.78,2.06-1.77,3.95-3.91,5.12" transform="translate(0)"/><path class="cls-4" d="M291,157.19c-4.4,0-7.17,2.78-7.18,7.2q0,11.43,0,22.87c0,4.36,2.85,7.24,7.19,7.25q17.52,0,35,0a6.88,6.88,0,0,0,7.22-7.26q0-11.43,0-22.87c0-4.39-2.85-7.19-7.22-7.19-5.84,0-11.68,0-17.51,0s-11.68,0-17.52,0m17.46-15.95q10.62,0,21.24,0A20.56,20.56,0,0,1,350.37,162v27.57a20.21,20.21,0,0,1-19.92,20.54q-21.87.28-43.77,0c-11.75-.15-20.26-9.12-20.27-20.86q0-13.46,0-26.91c0-12.11,9-21.07,21.14-21.07Z" transform="translate(0)"/></g></g></g></svg>